<?xml version="1.0" standalone="no"?>
<!DOCTYPE svg PUBLIC "-//W3C//DTD SVG 20010904//EN"
 "http://www.w3.org/TR/2001/REC-SVG-20010904/DTD/svg10.dtd">
<svg version="1.0" xmlns="http://www.w3.org/2000/svg"
 width="722.000000pt" height="722.000000pt" viewBox="0 0 722.000000 722.000000"
 preserveAspectRatio="xMidYMid meet">
<metadata>
Created by potrace 1.14, written by Peter Selinger 2001-2017
</metadata>
<g transform="translate(0.000000,722.000000) scale(0.100000,-0.100000)"
fill="#000000" stroke="none">
<path d="M5599 5453 c-296 -403 -412 -560 -426 -578 -5 -5 -134 -181 -288
-390 -371 -504 -374 -508 -388 -525 -7 -8 -34 -46 -62 -85 -27 -38 -55 -77
-62 -85 -7 -8 -48 -63 -90 -122 -85 -116 -849 -1152 -973 -1318 -10 -14 -51
-70 -91 -125 -41 -55 -79 -106 -85 -112 -7 -7 -22 -28 -34 -48 -12 -19 -25
-35 -30 -35 -8 0 -387 511 -785 1060 -60 83 -115 157 -120 163 -6 7 -33 42
-60 80 -29 40 -55 65 -62 63 -12 -5 -110 -76 -473 -345 -63 -46 -146 -108
-185 -136 -38 -28 -123 -91 -187 -138 l-117 -87 311 -427 c171 -236 332 -457
358 -493 78 -108 359 -494 372 -512 7 -9 53 -72 102 -140 l90 -124 170 2 c94
1 425 3 736 5 311 1 572 5 581 8 9 3 83 96 164 206 81 110 177 240 214 289 36
50 114 155 173 235 59 81 111 151 116 156 4 6 34 46 67 90 32 44 89 121 125
170 37 50 273 369 525 710 252 341 498 674 547 740 174 236 429 580 444 600
107 146 297 403 307 415 7 8 55 74 107 145 52 72 134 183 182 247 48 64 88
121 88 125 0 4 -17 19 -37 33 -20 14 -111 80 -202 148 -91 67 -231 170 -311
229 -80 59 -204 151 -277 205 -72 54 -134 98 -136 98 -3 0 -137 -179 -298
-397z"/>
<path d="M4981 5673 c-43 -60 -115 -156 -158 -215 -86 -117 -349 -474 -401
-544 l-32 -44 140 0 141 0 152 206 c84 113 214 289 289 390 l138 184 -88 65
c-48 35 -90 65 -94 65 -4 0 -43 -48 -87 -107z"/>
<path d="M5255 5513 c-33 -46 -65 -90 -70 -96 -22 -26 -74 -95 -110 -147 -21
-30 -42 -59 -47 -65 -13 -16 -251 -337 -270 -365 -9 -14 -40 -55 -68 -93 l-50
-68 144 2 c92 2 147 6 150 13 3 9 84 120 268 366 18 24 92 125 165 223 l132
179 -82 60 c-45 34 -86 64 -92 68 -6 4 -36 -29 -70 -77z"/>
<path d="M6470 4443 c-84 -115 -188 -254 -229 -310 -226 -305 -279 -379 -278
-388 2 -9 264 -12 271 -3 4 5 226 305 324 438 50 69 127 173 171 231 l79 106
-89 67 c-49 36 -90 66 -92 66 -2 0 -72 -93 -157 -207z"/>
<path d="M6866 4417 c-15 -17 -30 -36 -34 -42 -5 -5 -44 -59 -88 -120 -44 -60
-130 -177 -191 -260 -261 -352 -332 -450 -333 -456 0 -4 245 -5 272 0 7 1 566
754 570 769 2 6 -36 40 -84 76 l-87 66 -25 -33z"/>
<path d="M1025 4273 c-284 -48 -505 -307 -507 -597 -2 -150 51 -299 139 -396
18 -19 33 -38 33 -42 0 -3 28 -28 63 -54 122 -92 258 -136 402 -129 114 5 159
17 265 68 79 39 203 157 247 237 186 336 36 751 -320 884 -110 41 -200 49
-322 29z"/>
</g>
</svg>
