<svg fill="none" height="661" viewBox="0 0 710 661" width="710" xmlns="http://www.w3.org/2000/svg" xmlns:xlink="http://www.w3.org/1999/xlink"><filter id="a" color-interpolation-filters="sRGB" filterUnits="userSpaceOnUse" height="178" width="178" x="277" y="246"><feFlood flood-opacity="0" result="BackgroundImageFix"/><feColorMatrix in="SourceAlpha" result="hardAlpha" type="matrix" values="0 0 0 0 0 0 0 0 0 0 0 0 0 0 0 0 0 0 127 0"/><feMorphology in="SourceAlpha" operator="erode" radius="11" result="effect1_dropShadow_5_34925"/><feOffset dy="4"/><feGaussianBlur stdDeviation="25"/><feComposite in2="hardAlpha" operator="out"/><feColorMatrix type="matrix" values="0 0 0 0 0 0 0 0 0 0 0 0 0 0 0 0 0 0 0.25 0"/><feBlend in2="BackgroundImageFix" mode="normal" result="effect1_dropShadow_5_34925"/><feBlend in="SourceGraphic" in2="effect1_dropShadow_5_34925" mode="normal" result="shape"/></filter><clipPath id="b"><path d="m338 309h57v44h-57z"/></clipPath><mask height="70" maskUnits="userSpaceOnUse" width="70" x="640" y="401"><circle cx="675" cy="436" fill="#c4c4c4" r="35"/></mask><mask height="70" maskUnits="userSpaceOnUse" width="70" x="332" y="102"><circle cx="367" cy="137" fill="#c4c4c4" r="35"/></mask><circle cx="365.5" cy="330.5" r="329.5" stroke="#a7cefc" stroke-dasharray="15 15" stroke-width="2"/><circle cx="365.5" cy="330.5" r="192.5" stroke="#a7cefc" stroke-dasharray="15 15" stroke-width="2"/><circle cx="35" cy="331" fill="#ff5758" r="35"/><circle cx="559" cy="331" fill="#37a3ff" r="35"/><circle cx="366" cy="524" fill="#ffbf60" r="35"/><g fill="#37a3ff"><circle cx="172" cy="331" r="35"/><circle cx="172" cy="603" r="35"/><circle cx="599" cy="106" r="35"/></g><circle cx="675" cy="436" fill="#00ca75" r="35"/><circle cx="367" cy="137" fill="#00ca75" r="35"/><circle cx="175" cy="58" fill="#ffdc4d" r="35"/><g filter="url(#a)"><rect fill="#fff" height="100" rx="10" width="100" x="316" y="281"/></g><g clip-path="url(#b)" fill="#5986ef"><path d="m338 312.589v10.246c0 3.12 3.861 4.784 6.22 2.6l11.261-10.246c2.466-2.236.858-6.189-2.521-6.189h-11.26c-2.038 0-3.7 1.612-3.7 3.589z"/><path d="m391.3 309h-11.26c-3.325 0-4.987 3.953-2.521 6.189l11.261 10.246c2.359 2.132 6.22.52 6.22-2.6v-10.246c0-1.977-1.662-3.589-3.7-3.589z"/><path d="m369.047 334.017 19.733 17.995c2.359 2.132 6.22.52 6.22-2.601v-10.349c0-.989-.429-1.925-1.18-2.601l-24.773-22.624c-1.448-1.3-3.646-1.3-5.094 0l-24.773 22.624c-.751.676-1.18 1.612-1.18 2.601v10.349c0 3.121 3.861 4.785 6.22 2.601l19.733-17.995c1.448-1.301 3.646-1.301 5.094 0z"/></g></svg>