<svg width="710" height="661" viewBox="0 0 710 661" fill="none" xmlns="http://www.w3.org/2000/svg">
<circle cx="365.5" cy="330.5" r="329.5" stroke="#A7CEFC" stroke-width="2" stroke-dasharray="15 15"/>
<circle cx="365.5" cy="330.5" r="192.5" stroke="#A7CEFC" stroke-width="2" stroke-dasharray="15 15"/>
<circle cx="35" cy="331" r="35" fill="#FF5758"/>
<circle cx="559" cy="331" r="35" fill="#37A3FF"/>
<circle cx="366" cy="524" r="35" fill="#FFBF60"/>
<circle cx="172" cy="331" r="35" fill="#37A3FF"/>
<circle cx="172" cy="603" r="35" fill="#37A3FF"/>
<circle cx="599" cy="106" r="35" fill="#37A3FF"/>
<circle cx="675" cy="436" r="35" fill="#00CA75"/>
<mask id="mask0_5_34925" style="mask-type:alpha" maskUnits="userSpaceOnUse" x="640" y="401" width="70" height="70">
<circle cx="675" cy="436" r="35" fill="#C4C4C4"/>
</mask>
<g mask="url(#mask0_5_34925)">
</g>
<circle cx="367" cy="137" r="35" fill="#00CA75"/>
<mask id="mask1_5_34925" style="mask-type:alpha" maskUnits="userSpaceOnUse" x="332" y="102" width="70" height="70">
<circle cx="367" cy="137" r="35" fill="#C4C4C4"/>
</mask>
<g mask="url(#mask1_5_34925)">
</g>
<circle cx="175" cy="58" r="35" fill="#FFDC4D"/>
<g filter="url(#filter0_d_5_34925)">
<rect x="316" y="281" width="100" height="100" rx="10" fill="white"/>
</g>
<g clip-path="url(#clip0_5_34925)">
<g clip-path="url(#clip1_5_34925)">
<path d="M368.63 364.681L349.105 364.831L333.075 342.534L345.705 333.115L368.63 364.681Z" fill="#2875A6"/>
<path d="M349.105 364.831L368.63 364.681L408.374 310.326L395.745 300.908L349.105 364.831Z" fill="#85C1E9"/>
<path d="M333.754 337.788C338.19 337.788 341.786 334.154 341.786 329.672C341.786 325.19 338.19 321.556 333.754 321.556C329.317 321.556 325.721 325.19 325.721 329.672C325.721 334.154 329.317 337.788 333.754 337.788Z" fill="#2875A6"/>
<path d="M379.417 316.34L383.101 316.313L390.601 306.056L388.218 304.279L379.417 316.34Z" fill="#5FADE0"/>
<path d="M399.88 331.44L403.564 331.411L411.064 321.155L408.68 319.377L399.88 331.44Z" fill="#3A97D3"/>
<path d="M396.442 328.773L400.126 328.744L407.626 318.488L405.242 316.71L396.442 328.773Z" fill="#5FADE0"/>
<path d="M376.148 313.854L379.832 313.827L387.332 303.57L384.949 301.793L376.148 313.854Z" fill="#3A97D3"/>
</g>
</g>
<defs>
<filter id="filter0_d_5_34925" x="277" y="246" width="178" height="178" filterUnits="userSpaceOnUse" color-interpolation-filters="sRGB">
<feFlood flood-opacity="0" result="BackgroundImageFix"/>
<feColorMatrix in="SourceAlpha" type="matrix" values="0 0 0 0 0 0 0 0 0 0 0 0 0 0 0 0 0 0 127 0" result="hardAlpha"/>
<feMorphology radius="11" operator="erode" in="SourceAlpha" result="effect1_dropShadow_5_34925"/>
<feOffset dy="4"/>
<feGaussianBlur stdDeviation="25"/>
<feComposite in2="hardAlpha" operator="out"/>
<feColorMatrix type="matrix" values="0 0 0 0 0 0 0 0 0 0 0 0 0 0 0 0 0 0 0.25 0"/>
<feBlend mode="normal" in2="BackgroundImageFix" result="effect1_dropShadow_5_34925"/>
<feBlend mode="normal" in="SourceGraphic" in2="effect1_dropShadow_5_34925" result="shape"/>
</filter>
<clipPath id="clip0_5_34925">
<rect width="82" height="81" fill="white" transform="translate(325 290)"/>
</clipPath>
<clipPath id="clip1_5_34925">
<rect width="94" height="87" fill="white" transform="translate(319 287)"/>
</clipPath>
</defs>
</svg>
