<svg fill="none" height="434" viewBox="0 0 1440 434" width="1440" xmlns="http://www.w3.org/2000/svg"><g fill="#ffe492" opacity=".3"><path d="m486.505 433.346c-7.104 0-14.018-.354-20.662-1.06-13.935-1.482-26.81-4.523-38.266-9.041-12.314-4.854-23.114-11.469-32.103-19.659-18.065-16.463-27.103-36.178-35.845-55.244-1.717-3.744-3.493-7.616-5.295-11.372-12.3-25.601-27.893-48.026-47.665-68.557-39.442-40.955-94.911-75.907-160.412-101.078-75.7522-29.108-157.1979-43.608-229.3361-40.828-42.3989 1.635-98.4199 17.181-123.4579 43.73-14.858 15.757-16.056 33.243-3.462 50.564l-.25.074c-6.604-9.085-9.481-18.192-8.549-27.069.854-8.143 4.9-16.104 12.025-23.659 11.333-12.018 30.022-22.67 54.048-30.804 22.201-7.516 46.928-12.137 69.6294-13.012 37.7522-1.453 77.90351 1.773 119.3381 9.592 37.5599 7.089 74.6225 17.606 110.1575 31.26 65.54 25.185 121.041 60.156 160.506 101.136 19.783 20.545 35.383 42.982 47.692 68.597 1.805 3.756 3.58 7.629 5.295 11.373 8.733 19.053 17.766 38.754 35.807 55.192 17.447 15.9 41.063 25.532 70.189 28.627 40.336 4.288 89.317-4.68 131.02-23.99 60.1-27.827 101.809-68.331 142.147-107.5 7.071-6.865 14.38-13.964 21.619-20.82 18.791-17.801 44.24-40.868 74.485-61.418 30.915-21.004 62.33-36.437 96.043-47.181 20.635-6.576 42.503-11.007 64.999-13.168 20.778-1.997 42.768-2.121 65.368-.371 38.76 3.003 80.52 11.486 127.66 25.932 92.83 28.447 185.56 62.976 275.61 102.629 85.6 37.689 169.54 80.337 249.51 126.754l-.19.129c-165.76-96.222-342.41-173.388-525.05-229.355-103.18-31.62-185.09-35.559-257.783-12.395-73.952 23.566-125.612 66.093-170.424 108.54-7.236 6.854-14.545 13.953-21.616 20.819-40.349 39.182-82.072 79.698-142.213 107.544-19.434 8.999-41.297 16.018-63.223 20.297-11.583 2.261-23.097 3.739-34.227 4.394-4.435.267-8.813.398-13.119.398z"/><path d="m493.451 423.583c-18.115 0-34.895-2.188-49.891-6.505-16.721-4.814-31.151-12.274-42.891-22.171-1.039-.877-2.069-1.783-3.064-2.696-17.873-16.391-27.312-35.85-36.438-54.669-1.847-3.803-3.754-7.737-5.689-11.555-11.522-22.728-25.397-42.76-42.421-61.238-2.097-2.275-4.268-4.554-6.458-6.775-40.022-40.603-95.941-75.113-161.712-99.799-76.2991-28.611-157.9757-42.511-229.9847-39.139-42.0913 1.993-97.8543 17.793-122.9983 44.138-15.057 15.776-16.76 33.297-4.933 50.669l-.253.07c-6.199-9.106-8.747-18.23-7.568-27.118 1.083-8.162 5.293-16.14 12.517-23.711 11.449-11.997 30.083-22.661 53.884-30.837 21.997-7.558 46.617-12.311 69.3266-13.385 37.7055-1.766 77.90075 1.152 119.4672 8.672 37.6506 6.811 74.8892 17.07 110.6792 30.491 65.809 24.7 121.759 59.231 161.806 99.857 2.19 2.222 4.364 4.504 6.461 6.78 17.035 18.49 30.917 38.532 42.445 61.273 1.938 3.817 3.845 7.751 5.692 11.556 9.123 18.807 18.554 38.252 36.403 54.62.992.91 2.022 1.817 3.058 2.692 24.26 20.457 57.593 28.78 92.647 28.78h.574c-.22-.002-.44 0-.659 0zm7.477-.122c32.589-1.062 66.216-9.004 95.065-20.82 62.229-25.593 106.953-65.12 150.206-103.346 1.781-1.575 3.562-3.148 5.343-4.72 3.91-3.451 8.546-7.537 13.278-11.655 21.228-18.471 46.92-39.962 76.508-59.306 31.481-20.583 62.932-35.857 96.147-46.696 20.41-6.653 41.979-11.34 64.105-13.93 20.51-2.4 42.17-3.078 64.4-2.017 38.39 1.835 79.67 8.794 126.2 21.273 45.36 12.149 82.66 23.585 117.35 35.99 49.16 17.59 95.98 37.858 135.31 55.362 91.41 40.814 181.11 87.159 266.59 137.748l-.18.127c-85.48-50.582-175.17-96.923-266.57-137.732-39.32-17.503-86.13-37.767-135.28-55.352-34.69-12.401-71.97-23.834-117.32-35.979-101.36-27.187-182.23-28.883-254.478-5.333-74.988 24.468-128.391 67.518-172.559 105.949-4.735 4.119-9.368 8.203-13.279 11.656-1.781 1.57-3.561 3.144-5.342 4.72-43.268 38.238-88.008 77.779-150.281 103.391-15.441 6.323-31.871 11.347-48.838 14.928-15.792 3.331-31.36 5.257-46.375 5.742z"/><path d="m501.109 414.044c-2.179 0-4.345-.03-6.494-.091-18.098-.507-34.847-3.141-49.78-7.831-16.331-5.13-30.481-12.728-42.053-22.584-1.028-.879-2.053-1.787-3.042-2.7-17.672-16.311-27.505-35.51-37.01-54.075-1.981-3.869-4.031-7.871-6.109-11.755-12.091-22.652-26.331-42.524-43.54-60.752-2.129-2.253-4.333-4.514-6.556-6.717-40.602-40.249-96.972-74.316-163.013-98.518-76.8424-28.114-158.7498-41.417-230.6325-37.452-40.4725 2.268-96.0735 17.167-122.5095 44.518-15.273 15.802-17.496 33.37-6.43 50.803l-.256.065c-5.798-9.133-8.01-18.279-6.581-27.182 1.313-8.189 5.699-16.187 13.034-23.776 11.569-11.969 30.143-22.637 53.715-30.851 21.792-7.595 46.299-12.477 69.0028-13.749 37.6616-2.076 77.90078.532 119.5964 7.751 37.7441 6.536 75.1558 16.536 111.1988 29.723 66.079 24.217 122.479 58.303 163.106 98.575 2.223 2.205 4.429 4.466 6.559 6.723 17.216 18.239 31.465 38.123 43.562 60.787 2.077 3.885 4.127 7.887 6.108 11.757 9.503 18.554 19.327 37.739 36.978 54.031.989.913 2.009 1.819 3.036 2.694 47.022 40.051 130.353 35.751 192.076 13.725 64.825-23.337 113.001-62.124 159.591-99.633l.478-.386c4.512-3.636 9.178-7.393 13.822-11.104 49.006-39.148 102.87-79.38 174.785-103.407 20.19-6.731 41.462-11.674 63.219-14.692 20.24-2.806 41.58-4.038 63.42-3.662 38.09.656 78.89 6.09 124.74 16.615 48.19 11.021 84.46 21.151 117.59 32.848 47.2 16.7 92.92 37.802 133.26 56.421 89.82 41.677 178.15 88.626 262.54 139.54l-.19.126c-84.38-50.909-172.7-97.853-262.51-139.527-40.33-18.615-86.05-39.714-133.24-56.408-33.11-11.694-69.37-21.821-117.54-32.838-99.39-22.813-179.2-22.264-251.162 1.729-71.869 24.011-125.711 64.226-174.697 103.359-4.644 3.711-9.311 7.471-13.823 11.105l-.478.385c-23.218 18.692-47.225 38.02-73.149 55.284-29.135 19.402-57.437 33.923-86.524 44.393-30.432 10.859-63.581 16.733-94.098 16.733z"/><path d="m1705.42 408.185c-83.29-51.237-170.24-98.784-258.45-141.32-3.74-1.789-7.48-3.586-11.24-5.388-38.2-18.34-77.71-37.303-119.96-52.077-40.99-14.293-82.53-23.032-117.76-29.695-97.24-18.508-176-15.714-247.848 8.789-73.759 25.229-130.913 67.114-176.835 100.772-2.756 2.02-5.507 4.043-8.263 6.069-2.034 1.495-4.07 2.991-6.106 4.485-26.147 19.183-49.932 36.334-76.211 51.984-30.022 17.878-58.959 30.972-88.469 40.03-27.657 8.49-57.2 12.982-84.681 12.984-5.007 0-9.939-.149-14.787-.45-17.697-1.1-34.081-4.19-48.695-9.186-15.946-5.45-29.816-13.192-41.228-23.012-1.02-.881-2.036-1.791-3.02-2.706-17.464-16.225-27.678-35.154-37.555-53.459-2.127-3.943-4.328-8.021-6.554-11.98-12.668-22.58-27.276-42.293-44.655-60.267-2.163-2.236-4.402-4.476-6.656-6.66-41.184-39.896-98.002-73.52-164.309-97.238-77.3868-27.618-159.5223-40.3193-231.2785-35.767-49.0545 3.174-99.2175 21.626-121.9875 44.869-15.512 15.835-18.263 33.458-7.961 50.965l-.258.061c-5.394-9.167-7.274-18.34-5.587-27.266 1.553-8.218 6.12-16.243 13.573-23.853 11.69-11.934 30.203-22.601 53.539-30.846 21.583-7.625 45.964-12.635 68.654-14.102 37.6176-2.388 77.898-.089 119.7228 6.831 37.8347 6.261 75.4252 16.002 111.7202 28.954 66.349 23.733 123.197 57.376 164.406 97.296 2.256 2.186 4.496 4.427 6.659 6.663 17.389 17.985 32.003 37.708 44.679 60.299 2.226 3.961 4.428 8.037 6.555 11.982 9.87 18.294 20.079 37.211 37.521 53.417.984.914 1.998 1.822 3.014 2.7 49.088 42.24 132.521 36.964 189.05 19.612 67.445-20.703 119.055-58.564 164.593-91.97 2.036-1.496 4.07-2.991 6.106-4.485 2.753-2.026 5.507-4.049 8.263-6.069 26.214-19.212 52.1-37.881 80.558-55.084 32.726-19.785 64.246-34.742 96.357-45.726 19.978-6.813 40.948-12.013 62.334-15.452 19.98-3.215 40.99-5 62.45-5.307 37.84-.54 78.16 3.371 123.28 11.955 35.24 6.667 76.8 15.41 117.8 29.711 42.27 14.779 81.79 33.748 120 52.091 3.76 1.803 7.5 3.6 11.24 5.388 88.22 42.54 175.18 90.092 258.47 141.334z"/><path d="m1702.51 406.543c-83.76-52.544-169.35-100.696-254.39-143.116-5.09-2.537-10.3-5.154-15.33-7.683-36.06-18.113-73.34-36.843-113.84-50.838-40.43-13.924-82.32-21.238-117.97-26.554-94.87-14.288-172.58-9.25-244.536 15.852-68.634 24.031-122.405 60.167-174.405 95.112l-5.711 3.836c-4.509 3.032-9.173 6.164-13.77 9.237-52.053 34.744-104.161 67.309-169.209 83.965-15.785 4.042-31.993 6.843-48.178 8.33-17.382 1.595-34.265 1.617-50.185.066-17.29-1.686-33.303-5.226-47.593-10.523-15.551-5.764-29.142-13.647-40.393-23.429-1.014-.885-2.022-1.797-2.998-2.71-17.249-16.13-27.832-34.78-38.065-52.817-2.284-4.024-4.647-8.186-7.032-12.228-13.257-22.511-28.228-42.066-45.771-59.782-2.193-2.213-4.466-4.436-6.755-6.602-41.764-39.542-99.03-72.723-165.609-95.959-77.9341-27.117-160.3004-39.2208-231.933-34.0772-48.607 3.5642-98.541 22.1442-121.427 45.1852-15.77 15.875-19.065 33.567-9.53 51.162l-.261.058c-4.99-9.207-6.532-18.415-4.583-27.367 1.797-8.253 6.554-16.309 14.138-23.943 11.817-11.895 30.264-22.551 53.353-30.82 21.368-7.654 45.617-12.7833 68.2771-14.4461 37.5736-2.6981 77.8953-.7094 119.852 5.9101 37.9281 5.986 75.6909 15.468 112.2429 28.186 66.617 23.248 123.916 56.451 165.705 96.015 2.289 2.168 4.565 4.392 6.758 6.606 17.554 17.725 32.533 37.29 45.795 59.813 2.386 4.042 4.749 8.206 7.033 12.23 10.228 18.026 20.805 36.668 38.035 52.778.973.91 1.981 1.82 2.992 2.705 47.907 41.653 127.506 40.483 186.025 25.499 64.996-16.643 117.082-49.195 169.113-83.924 4.597-3.073 9.26-6.205 13.77-9.236l5.71-3.836c25.527-17.153 51.919-34.892 80.583-51.393 32.465-18.688 63.177-33 93.889-43.754 19.775-6.899 40.448-12.354 61.443-16.213 19.74-3.629 40.42-5.968 61.48-6.953 37.67-1.762 77.52.626 121.82 7.296 35.66 5.32 77.57 12.635 118.03 26.572 40.52 14 77.81 32.735 113.88 50.854 5.03 2.529 10.24 5.143 15.32 7.683 85.06 42.422 170.65 90.578 254.42 143.128z"/><path d="m1699.59 404.903c-83.03-53.129-167.26-101.884-250.33-144.909-6.24-3.234-12.64-6.596-18.83-9.847-34.11-17.918-69.38-36.446-108.29-49.729-40.25-13.686-82.33-19.516-118.18-23.414-92.25-10.181-168.91-2.898-241.236 22.915-63.122 22.623-114.947 54.683-165.068 85.688-5.274 3.263-10.729 6.635-16.043 9.904-6.241 3.838-11.009 6.754-15.458 9.452-23.828 14.442-52.198 31.072-81.97 44.905-31.55 14.656-61.567 24.801-91.768 31.013-15.881 3.266-32.02 5.326-47.972 6.121-17.128.854-33.713.227-49.288-1.867-16.876-2.267-32.515-6.257-46.489-11.857-15.152-6.073-28.461-14.098-39.557-23.848-1-.884-2.004-1.797-2.976-2.714-17.022-16.021-27.959-34.384-38.539-52.141-2.453-4.119-4.99-8.377-7.548-12.513-13.853-22.448-29.19-41.843-46.89-59.295-2.226-2.195-4.531-4.396-6.853-6.545-42.344-39.188-100.061-71.927-166.909-94.68-78.4755-26.6188-161.0726-38.1209-232.5788-32.3899-40.6872 3.3326-93.8282 18.6849-120.8302 45.4679-16.054 15.924-19.907 33.695-11.138 51.392l-.261.052c-4.586-9.253-5.784-18.501-3.564-27.488 2.05-8.295 7.005-16.386 14.732-24.05 11.943-11.846 30.322-22.485 53.155-30.771 21.154-7.6762 45.257-12.9226 67.8733-14.7754 37.5296-3.0085 77.8953-1.33 119.9784 4.9901 38.0188 5.7101 75.9583 14.9343 112.7623 27.4193 66.887 22.765 124.636 55.523 167.005 94.733 2.322 2.149 4.63 4.354 6.856 6.551 17.709 17.461 33.053 36.866 46.914 59.324 2.562 4.138 5.098 8.396 7.552 12.515 10.572 17.749 21.506 36.101 38.508 52.105.973.915 1.973 1.827 2.973 2.709 39.855 35.023 108.267 46.757 182.999 31.386 67.678-13.92 122.886-45.118 173.634-75.878 4.449-2.698 9.214-5.614 15.454-9.452 5.315-3.269 10.77-6.641 16.043-9.904 24.675-15.264 50.187-31.046 77.401-45.825 30.772-16.714 59.47-29.762 87.728-39.889 19.585-6.989 39.958-12.701 60.548-16.975 19.51-4.049 39.87-6.94 60.51-8.598 37.58-3.015 76.95-2.152 120.35 2.637 35.88 3.901 77.99 9.733 118.27 23.431 38.93 13.292 74.21 31.826 108.33 49.749 6.19 3.251 12.59 6.613 18.84 9.846 83.07 43.031 167.3 91.79 250.35 144.921z"/><path d="m1696.68 403.261c-82.32-53.715-165.18-103.075-246.28-146.704-6.9-3.711-13.98-7.607-20.83-11.373-32.65-17.943-66.4-36.495-104.25-49.259-40.28-13.522-82.45-17.836-118.39-20.273-88.07-6.13-165.9 3.676-237.928 29.978-57.354 21.038-106.519 49.182-154.065 76.401-9.604 5.497-19.533 11.183-29.187 16.602-5.905 3.317-11.137 6.229-16.001 8.903-22.619 12.42-52.707 28.346-84.859 41.361-32.306 13.076-62.861 21.747-93.411 26.508-33.319 5.192-66.573 5.23-96.164.113-16.452-2.846-31.72-7.284-45.381-13.191-14.748-6.378-27.774-14.542-38.719-24.263-.992-.885-1.987-1.8-2.954-2.717-16.78-15.9-28.058-33.96-38.962-51.425-2.638-4.225-5.364-8.593-8.114-12.837-14.461-22.389-30.163-41.627-48.006-58.809-2.258-2.175-4.597-4.358-6.952-6.487-42.924-38.834-101.089-71.132-168.206-93.399-79.0167-26.1186-161.8446-37.021-233.2271-30.7027-48.3759 4.3749-96.6779 22.7457-120.1899 45.7117-16.362 15.982-20.783 33.846-12.787 51.661l-.263.047c-4.18-9.31-5.032-18.607-2.534-27.632 2.308-8.342 7.475-16.475 15.353-24.172 12.069-11.789 30.377-22.404 52.943-30.6974 20.932-7.6918 44.884-13.0533 67.4394-15.0926 37.4857-3.3186 77.8953-1.9486 120.1076 4.0699 38.1122 5.4347 76.227 14.4006 113.284 26.6501 67.156 22.281 125.354 54.596 168.305 93.454 2.355 2.13 4.694 4.314 6.955 6.491 17.852 17.193 33.562 36.439 48.03 58.839 2.751 4.244 5.477 8.614 8.115 12.839 10.899 17.456 22.171 35.508 38.934 51.392.967.917 1.959 1.828 2.952 2.714 39.17 34.797 106.449 48.73 179.975 37.274 67.03-10.446 125.238-38.775 178.154-67.831 4.861-2.674 10.096-5.584 15.999-8.901 9.651-5.419 19.583-11.103 29.184-16.601 47.557-27.223 96.73-55.375 154.112-76.421 19.412-7.089 39.488-13.055 59.668-17.737 19.3-4.476 39.33-7.922 59.53-10.242 37.57-4.314 76.46-4.974 118.89-2.022 35.97 2.439 78.18 6.754 118.49 20.292 37.88 12.773 71.65 31.332 104.31 49.282 6.85 3.766 13.93 7.66 20.83 11.371 81.11 43.632 163.97 92.996 246.29 146.715z"/><path d="m1693.76 401.618c-81.58-54.308-163.07-104.27-242.21-148.498-7.27-4.065-14.75-8.368-21.99-12.53-31.45-18.094-63.97-36.806-101.06-49.158-40.44-13.407-82.65-16.184-118.61-17.132-84.73-2.398-161.48 9.717-234.608 37.04-51.287 19.253-97.005 43.621-141.221 67.184-15.202 8.103-29.563 15.757-44.169 23.229-5.941 3.042-11.352 5.775-16.546 8.352-33.512 16.62-61.393 28.636-87.747 37.815-33.061 11.516-64.152 18.714-95.051 22.005-11.987 1.276-23.93 1.912-35.655 1.912-20.786 0-40.899-1.994-59.415-5.944-33.509-7.148-61.149-20.337-82.152-39.201-.989-.894-1.976-1.809-2.932-2.723-16.524-15.762-28.118-33.502-39.33-50.66-2.841-4.347-5.776-8.84-8.736-13.21-15.078-22.337-31.149-41.414-49.121-58.322-2.292-2.157-4.663-4.32-7.051-6.43-43.504-38.48-102.119-70.335-169.506-92.119-79.5579-25.6172-162.614-35.9218-233.8728-29.016-48.5772 4.8054-95.4852 22.828-119.5002 45.916-16.694 16.047-21.701 34.018-14.485 51.969l-.266.043c-3.768-9.373-4.268-18.726-1.484-27.799 2.577-8.397 7.961-16.576 16.007-24.309 12.195-11.725 30.423-22.3053 52.715-30.5985 20.706-7.704 44.49-13.17 66.9719-15.3941 37.4418-3.6289 77.8953-2.5692 120.234 3.1496 38.2057 5.161 76.4938 13.869 113.8061 25.882 67.426 21.798 126.074 53.67 169.605 92.173 2.388 2.112 4.76 4.275 7.054 6.433 17.983 16.918 34.062 36.005 49.146 58.35 2.96 4.37 5.897 8.865 8.736 13.212 11.206 17.15 22.795 34.883 39.305 50.631.956.911 1.94 1.827 2.929 2.719 39.22 35.229 103.716 50.962 176.951 43.162 69.714-7.425 131.462-34.388 182.674-59.785 5.191-2.578 10.602-5.309 16.543-8.351 14.603-7.472 28.964-15.124 44.166-23.227 44.221-23.569 89.951-47.939 141.256-67.199 19.267-7.199 39.039-13.421 58.779-18.497 19.11-4.915 38.82-8.915 58.56-11.887 37.65-5.667 76.06-7.852 117.42-6.681 35.99.948 78.24 3.728 118.73 17.151 37.11 12.361 69.65 31.081 101.12 49.182 7.23 4.162 14.71 8.466 21.98 12.529 79.14 44.232 160.64 94.198 242.23 148.51z"/><path d="m1690.85 399.977c-81.99-55.678-159.89-104.839-238.15-150.293-7.47-4.337-14.82-8.766-22.61-13.454-30.43-18.33-61.89-37.281-98.41-49.289-40.95-13.402-85.01-14.517-118.82-13.991-80.88 1.095-156.54 15.521-231.299 44.105-44.856 17.233-86.271 37.927-126.324 57.942-21.049 10.519-40.931 20.453-61.206 29.88-6.018 2.801-11.611 5.353-17.09 7.802-33.968 15.157-62.768 26.044-90.638 34.264-33.828 9.977-65.455 15.702-96.689 17.505-16.048.925-31.987.751-47.373-.518-16.29-1.344-31.97-3.922-46.604-7.66-32.435-8.288-59.417-22.063-80.201-40.945-.981-.896-1.959-1.813-2.91-2.726-16.246-15.6-28.131-33.002-39.626-49.831-3.067-4.49-6.238-9.133-9.429-13.647-15.71-22.288-32.143-41.206-50.239-57.836-2.327-2.137-4.732-4.281-7.147-6.373-44.084-38.126-103.147-69.538-170.803-90.8394-62.4463-19.5791-126.84337-29.7948-185.8955-29.7948-16.6942 0-32.9487.8157-48.6262 2.4664-47.9913 5.1522-94.6063 23.2393-118.7613 46.0798-17.048 16.122-22.663 34.215-16.235 52.319l-.269.039c-3.356-9.447-3.496-18.865-.418-27.989 2.852-8.459 8.469-16.691 16.691-24.467 12.323-11.652 30.465-22.1882 52.471-30.4727 20.772-7.8208 43.76-13.2433 66.4719-15.68 37.3977-3.9391 77.8953-3.1879 120.3631 2.2293 38.2964 4.8839 76.7631 13.3322 114.329 25.1114 67.694 21.313 126.793 52.743 170.904 90.892 2.418 2.092 4.826 4.237 7.153 6.376 18.104 16.638 34.546 35.566 50.264 57.864 3.191 4.514 6.365 9.157 9.431 13.649 11.49 16.822 23.37 34.217 39.602 49.805.951.911 1.929 1.828 2.907 2.722 38.866 35.308 102.257 53.184 173.928 49.05 72.523-4.185 138.135-29.849 187.195-51.739 5.479-2.449 11.069-5.001 17.087-7.8 20.272-9.425 40.151-19.36 61.199-29.877 40.057-20.017 81.478-40.716 126.35-57.955 38.497-14.716 76.267-25.44 115.477-32.789 37.82-7.087 75.75-10.796 115.96-11.34 22.94-.357 41.66.263 58.91 1.951 22.27 2.178 41.91 6.123 60.04 12.059 36.55 12.018 68.03 30.981 98.48 49.319 7.78 4.688 15.13 9.115 22.6 13.452 78.27 45.456 156.17 94.62 238.17 150.302z"/><path d="m1687.94 398.334c-81.24-56.289-157.81-106.035-234.1-152.089-7.55-4.556-14.99-9.25-22.87-14.219-29.51-18.619-60.04-37.874-96.1-49.58-41.29-13.339-85.31-12.805-119.03-10.852-76.33 4.269-150.91 21.007-228 51.168-37.983 14.932-74.147 32.02-109.121 48.547-27.647 13.064-53.759 25.405-80.547 36.684-6.054 2.551-11.989 4.991-17.636 7.25-34.035 13.603-64.628 23.648-93.529 30.71-34.606 8.457-66.769 12.714-98.327 13.01-16.057.15-31.932-.77-47.175-2.738-15.98-2.064-31.358-5.29-45.708-9.592-31.322-9.39-57.651-23.75-78.253-42.684-.967-.894-1.94-1.813-2.888-2.732-15.941-15.409-28.084-32.444-39.829-48.917-3.323-4.66-6.761-9.482-10.215-14.168-16.353-22.246-33.152-41.004-51.355-57.35-2.36-2.118-4.798-4.243-7.246-6.315-44.664-37.773-104.178-68.742-172.103-89.5604-80.6379-24.6111-164.1584-33.7165-235.17-25.6395-47.37 5.4817-93.674 23.6158-117.964 46.1959-17.433 16.209-23.671 34.437-18.043 52.717l-.27.033c-2.935-9.529-2.709-19.019.674-28.206 3.14-8.529 8.997-16.82 17.411-24.643 12.443-11.5682 30.495-22.0523 52.204-30.3193 20.533-7.8191 43.333-13.3339 65.939-15.9501 37.3562-4.2477 77.895-3.8085 120.4892 1.309 38.3898 4.6119 77.0297 12.8022 114.8478 24.3444 67.967 20.829 127.514 51.817 172.202 89.613 2.451 2.072 4.891 4.198 7.252 6.318 18.214 16.354 35.018 35.121 51.379 57.376 3.457 4.687 6.893 9.508 10.218 14.17 11.739 16.466 23.877 33.494 39.807 48.893.948.917 1.921 1.835 2.886 2.728 39.274 36.094 99.97 55.608 170.904 54.939 57.558-.54 118.476-14.425 191.713-43.693 5.644-2.259 11.577-4.698 17.631-7.249 26.78-11.278 52.891-23.614 80.534-36.678 34.979-16.529 71.149-33.621 109.143-48.557 38.865-15.207 76.035-26.718 113.615-35.194 38.08-8.586 75.53-13.82 114.5-15.999 33.77-1.957 77.83-2.489 119.18 10.871 36.11 11.72 66.65 30.983 96.18 49.611 7.88 4.969 15.32 9.661 22.86 14.216 76.29 46.055 152.87 95.805 234.11 152.097z"/><path d="m1685.02 396.69c-80.48-56.9-155.72-107.236-230.03-153.882-7.54-4.735-14.99-9.656-22.88-14.866-28.68-18.951-58.34-38.548-94.06-49.989-41.68-13.29-85.62-11.103-119.24-7.712-71.82 7.102-143.21 25.606-224.689 58.231-30.557 12.292-60.42 25.776-89.299 38.815-35.076 15.837-68.206 30.797-102.509 43.826-6.181 2.349-12.298 4.605-18.181 6.7-34.645 12.33-66.183 21.212-96.42 27.152-16.936 3.328-33.655 5.738-49.692 7.166-17.107 1.521-34.021 1.976-50.273 1.352-32.973-1.267-63.855-6.813-91.786-16.483-30.165-10.444-55.837-25.389-76.302-44.422-.961-.901-1.926-1.821-2.868-2.735-15.601-15.183-27.962-31.813-39.913-47.894-3.619-4.868-7.359-9.902-11.121-14.8-17.013-22.209-34.177-40.808-52.473-56.863-2.394-2.1-4.867-4.206-7.346-6.257-45.243-37.421-105.205-67.9476-173.4-88.2796-81.176-24.1074-164.9246-32.6132-235.818-23.9522-75.908 9.4174-149.877 50.1078-137.016 99.4258l-.272.028c-3.218-12.337-1.333-24.491 5.6-36.127 6.332-10.627 16.722-20.6287 30.883-29.7236 13.165-8.457 28.961-15.7585 46.944-21.7021 17.104-5.6525 35.71-9.8287 53.806-12.0737 37.3127-4.5579 77.8954-4.4272 120.6189.3904 38.4832 4.3384 77.2989 12.2707 115.3701 23.5775 68.233 20.346 128.231 50.8905 173.501 88.3315 2.482 2.053 4.955 4.159 7.351 6.261 18.305 16.062 35.477 34.672 52.498 56.889 3.762 4.898 7.503 9.932 11.122 14.802 11.948 16.076 24.303 32.699 39.895 47.873.94.913 1.902 1.834 2.864 2.733 39.332 36.579 98.953 58.179 167.879 60.829 58.351 2.24 122.54-9.419 196.233-35.648 5.881-2.095 11.995-4.349 18.175-6.698 34.296-13.026 67.42-27.984 102.49-43.819 28.882-13.041 58.748-26.527 89.311-38.82 81.507-32.639 152.937-51.15 224.787-58.258 22.6-2.278 41.3-3.007 58.88-2.29 22.46.915 42.26 4.192 60.53 10.019 35.76 11.453 65.44 31.061 94.14 50.023 7.88 5.209 15.33 10.129 22.87 14.863 74.32 46.649 149.56 96.987 230.04 153.891z"/><path d="m1682.11 395.052c-79.71-57.521-153.63-108.443-225.97-155.678-7.49-4.887-14.89-10.006-22.72-15.429-27.91-19.314-56.76-39.287-92.18-50.482-42.59-13.402-88.58-9.029-119.46-4.574-83.83 11.943-158.95 39.709-221.38 65.298-22.433 9.235-44.813 19.016-66.459 28.475-43.422 18.976-84.433 36.9-127.484 51.576-6.331 2.159-12.629 4.228-18.725 6.151-35.32 11.118-67.804 18.836-99.307 23.591-35.714 5.391-69.896 6.747-101.606 4.028-32.574-2.794-63.089-9.738-90.69-20.64-28.95-11.434-53.965-26.963-74.355-46.155-.951-.901-1.91-1.823-2.847-2.74-15.213-14.904-27.728-31.077-39.833-46.719-3.965-5.126-8.068-10.425-12.19-15.582-17.931-22.489-34.96-40.401-53.589-56.378-2.427-2.081-4.93-4.165-7.445-6.199-45.828-37.065-106.241-67.1493-174.705-87.0002-81.7148-23.6019-165.6942-31.5099-236.467-22.265-76.18 10.0832-148.637 50.2209-138.024 99.9402l-.272.022c-2.633-12.335-.355-24.477 6.768-36.087 6.529-10.6372 16.98-20.649 31.066-29.7544 13.136-8.4918 28.849-15.8473 46.706-21.8658 17.002-5.731 35.573-10.0275 53.701-12.4276 37.2718-4.8682 77.8957-5.046 120.7455-.5299 38.5767 4.0647 77.5683 11.7391 115.8925 22.8089 68.505 19.8614 128.95 49.9628 174.801 87.0508 2.514 2.035 5.021 4.122 7.45 6.203 18.64 15.983 35.675 33.906 53.614 56.403 4.122 5.158 8.225 10.458 12.19 15.584 12.102 15.637 24.614 31.805 39.816 46.702.937.917 1.893 1.837 2.844 2.738 39.638 37.307 98.184 61.002 164.856 66.719 59.797 5.128 125.464-3.903 200.757-27.604 6.092-1.921 12.391-3.988 18.717-6.148 43.039-14.672 84.045-32.592 127.458-51.566 21.646-9.459 44.029-19.243 66.466-28.479 41.98-17.205 76.9-29.917 109.9-40.003 38.84-11.874 75.33-20.155 111.57-25.317 22.08-3.187 41.34-4.63 58.86-4.41 22.55.282 42.43 3.224 60.78 8.997 35.46 11.209 64.34 31.194 92.26 50.521 7.83 5.421 15.23 10.54 22.71 15.424 72.35 47.236 146.27 98.162 225.99 155.684z"/><path d="m1679.2 393.407c-78.95-58.143-151.54-109.652-221.92-157.473-7.38-5.015-14.68-10.312-22.42-15.921-27.17-19.702-55.26-40.076-90.44-51.045-43.05-13.37-88.91-7.223-119.67-1.434-75.95 14.172-143.69 41.157-218.06 72.362-13.417 5.649-26.984 11.479-40.106 17.119-50.464 21.69-102.644 44.117-155.985 60.341-6.48 1.973-12.966 3.857-19.272 5.6-35.56 9.817-69.943 16.555-102.196 20.029-36.538 3.936-71.273 3.781-103.249-.458-32.119-4.258-62.262-12.602-89.593-24.8-27.659-12.343-52.023-28.454-72.413-47.883-.943-.903-1.894-1.827-2.825-2.744-14.754-14.555-27.349-30.202-39.528-45.333-4.388-5.452-8.925-11.089-13.484-16.574-18.632-22.466-36.016-40.225-54.708-55.891-2.454-2.057-4.993-4.124-7.543-6.142-46.4-36.717-107.258-66.358-175.997-85.7245-82.2508-23.0964-166.4583-30.4048-237.115-20.5778-73.763 10.3709-147.558 49.1002-139.036 100.4523l-.272.017c-2.048-12.335.624-24.462 7.936-36.046 6.724-10.6501 17.238-20.6706 31.248-29.7865 25.848-16.8164 62.319-29.5036 100.063-34.8093 37.2276-5.1767 77.8955-5.6647 120.8745-1.4502 38.6701 3.7928 77.8348 11.2075 116.4115 22.0402 68.777 19.3769 129.671 49.0378 176.101 85.7708 2.553 2.02 5.092 4.088 7.549 6.146 18.7 15.675 36.092 33.441 54.73 55.915 4.558 5.487 9.098 11.124 13.487 16.576 12.176 15.128 24.768 30.771 39.513 45.32.929.917 1.88 1.839 2.823 2.742 40.794 38.872 96.755 63.98 161.83 72.609 60.259 7.99 129.322 1.41 205.277-19.558 6.304-1.743 12.784-3.625 19.261-5.597 53.323-16.218 105.497-38.642 155.95-60.328 13.122-5.641 26.689-11.471 40.108-17.12 32.55-13.66 70.43-29.328 108.03-42.409 39.33-13.682 75.34-23.487 110.11-29.974 21.88-4.119 41.13-6.256 58.84-6.531 22.33-.349 42.86 2.336 61.02 7.976 15.76 4.913 31.62 12.246 48.49 22.418 14.9 8.982 28.7 18.99 42.04 28.667 7.73 5.608 15.04 10.905 22.42 15.917 70.38 47.823 142.97 99.334 221.92 157.478z"/><path d="m1676.28 391.765c-78.17-58.77-149.43-110.867-217.86-159.266-7.24-5.124-14.42-10.582-22.02-16.358-26.46-20.112-53.82-40.91-88.8-51.662-32.69-10.017-71.9-9.46-119.88 1.704-67.08 15.522-127.05 41.484-190.54 68.972-7.91 3.424-16.08 6.962-24.22 10.456-3.18 1.372-6.37 2.747-9.55 4.121-60.498 26.091-123.051 53.071-188.671 70.748-6.633 1.788-13.3 3.488-19.816 5.05-36.339 8.702-71.693 14.242-105.076 16.462-37.381 2.486-72.674.823-104.891-4.943-31.619-5.66-61.391-15.403-88.489-28.96-26.266-13.14-49.976-29.831-70.473-49.612-.934-.905-1.877-1.831-2.803-2.749-14.194-14.099-26.747-29.115-38.89-43.636-4.916-5.881-10.003-11.962-15.111-17.881-19.352-22.45-37.088-40.056-55.824-55.405-2.489-2.039-5.059-4.086-7.642-6.085-46.988-36.3604-108.296-65.5608-177.305-84.4426-82.7837-22.5893-167.2247-29.2998-237.764-18.8906-72.407 10.7734-146.098 49.82-140.044 100.9662l-.275.014c-1.459-12.337 1.602-24.451 9.104-36.0049 6.923-10.6619 17.497-20.6945 31.432-29.8174 25.738-16.8513 62.083-29.7268 99.72-35.327 37.1864-5.4869 77.8955-6.2852 121.0009-2.3705 38.7635 3.5174 78.1069 10.6741 116.9361 21.2698 69.047 18.8941 130.394 48.1101 177.401 84.49 2.583 1.999 5.158 4.049 7.648 6.088 18.744 15.358 36.491 32.969 55.848 55.427 5.111 5.92 10.195 12.003 15.114 17.884 12.138 14.517 24.691 29.529 38.879 43.623.926.919 1.866 1.843 2.8 2.747 41.679 40.222 96.593 67.365 158.808 78.499 61.416 10.992 132.001 7.117 209.797-11.514 6.511-1.562 13.174-3.259 19.805-5.046 65.598-17.67 128.141-44.645 188.621-70.732 3.19-1.375 6.37-2.749 9.56-4.121 8.13-3.494 16.3-7.033 24.21-10.454 63.5-27.494 123.49-53.463 190.6-68.991 21.68-5.045 40.92-7.873 58.83-8.653 22.42-.974 43.03 1.367 61.27 6.955 15.67 4.816 31.33 12.182 47.89 22.519 14.6 9.122 28.02 19.323 41 29.189 7.6 5.774 14.78 11.23 22.02 16.352 68.43 48.402 139.69 100.5 217.86 159.272z"/><path d="m1673.37 390.122c-71.35-54.765-143.28-108.954-213.8-161.061-7.18-5.275-14.29-10.941-21.83-16.939-24.5-19.511-52.26-41.624-86.96-52.136-33.07-10-72.35-8.415-120.09 4.842-56.77 15.711-107.01 38.813-160.2 63.271-16.65 7.658-33.88 15.58-51.25 23.222-30.323 13.367-63.126 27.511-97.512 40.393-36.826 13.798-70.47 24.226-102.855 31.885-6.804 1.609-13.652 3.124-20.36 4.499-37.109 7.604-73.425 11.932-107.937 12.863-38.206 1.028-74.056-2.13-106.56-9.395-60.022-13.581-112.482-41.997-155.92-84.46-.926-.906-1.86-1.834-2.781-2.752-13.473-13.477-25.806-27.695-37.732-41.445-5.615-6.472-11.419-13.165-17.258-19.679-20.088-22.444-38.181-39.895-56.939-54.918-2.525-2.022-5.128-4.049-7.741-6.027-47.56-36.0105-109.319-64.7664-178.597-83.1655-83.3195-22.0837-167.9886-28.1929-238.412-17.2033-72.847 11.4323-144.691 49.9612-141.056 101.4808l-.275.007c-.871-12.341 2.586-24.4405 10.273-35.9651 7.122-10.6759 17.757-20.719 31.613-29.8488 13.053-8.6017 28.524-16.1228 45.982-22.3557 16.95-6.0499 34.914-10.5887 53.394-13.4891 37.1452-5.7954 77.8983-6.904 121.13011-3.2907 38.85699 3.2472 78.37349 10.1442 117.45589 20.5028 69.319 18.4095 131.113 47.1829 178.701 83.2106 2.613 1.98 5.221 4.009 7.746 6.031 18.767 15.031 36.868 32.489 56.964 54.941 5.84 6.515 11.643 13.208 17.258 19.682 11.926 13.748 24.256 27.964 37.724 41.436.918.92 1.855 1.846 2.779 2.752 43.405 42.43 95.817 70.823 155.782 84.391 61.767 13.804 135.878 12.605 214.32-3.471 6.703-1.375 13.551-2.888 20.35-4.495 72.407-17.121 138.656-45.084 200.303-72.259 17.38-7.641 34.6-15.562 51.25-23.22 53.2-24.463 103.45-47.57 160.25-63.289 47.81-13.278 87.17-14.862 120.32-4.84 15.54 4.708 30.96 12.088 47.16 22.558 14.29 9.233 27.31 19.602 39.9 29.627 7.53 5.998 14.64 11.663 21.82 16.934 70.52 52.108 142.45 106.298 213.8 161.065z"/><path d="m1670.46 388.482c-70.26-55.068-140.83-109.861-209.74-162.857-6.96-5.332-13.86-11.097-21.17-17.201-23.89-19.966-50.98-42.597-85.58-52.932-33.47-9.982-72.82-7.371-120.31 7.98-49.76 16.06-95.48 38.736-139.69 60.668-22.17 10.997-45.09 22.368-68.45 32.891-36.867 16.624-67.887 29.306-97.623 39.912-36.667 13.078-70.976 22.818-104.884 29.776-6.96 1.429-13.995 2.757-20.906 3.948-36.01 6.2-71.372 9.337-105.2 9.339-1.88 0-3.748-.011-5.617-.03-39.11-.404-75.515-5.079-108.206-13.891-15.779-4.278-31.231-9.707-45.925-16.139-13.811-6.045-27.384-13.165-40.341-21.162-23.311-14.386-45.103-31.739-66.614-53.048-.924-.916-1.844-1.835-2.759-2.757-12.482-12.572-24.29-25.714-35.708-38.424-6.593-7.337-13.408-14.924-20.272-22.309-21.135-22.753-39.039-39.541-58.058-54.432-2.558-2.003-5.193-4.011-7.84-5.97-48.137-35.6526-110.343-63.9658-179.89-81.882-83.8533-21.57656-168.7533-27.08617-239.061-15.5162-71.482 11.7966-143.232 50.6183-142.065 101.9932l-.274.002c-.544-23.9299 14.408-46.6847 43.237-65.8036 13.031-8.6418 28.42-16.2169 45.743-22.5195 16.857-6.1319 34.785-10.7892 53.29-13.8429 37.101-6.10569 77.898-7.52275 121.25625-4.2111 38.95035 2.9753 78.64275 9.6144 117.97475 19.7342 69.591 17.9285 131.834 46.2591 180.001 81.9329 2.646 1.961 5.287 3.971 7.846 5.973 19.027 14.899 36.938 31.693 58.079 54.455 6.864 7.387 13.682 14.974 20.272 22.31 11.418 12.708 23.224 25.849 35.702 38.418.915.922 1.833 1.84 2.757 2.755 45.71 45.28 95.677 74.811 152.756 90.282 79.058 21.314 162.644 14.253 218.844 4.576 6.906-1.191 13.935-2.517 20.893-3.947 77.986-16.004 149.149-45.636 202.432-69.664 23.36-10.519 46.28-21.89 68.44-32.885 44.22-21.935 89.95-44.619 139.73-60.686 21.25-6.869 40.49-11.087 58.8-12.892 22.58-2.228 43.36-.576 61.75 4.911 15.5 4.628 30.78 12.067 46.71 22.741 14.04 9.405 26.72 19.998 38.98 30.243 7.31 6.102 14.2 11.866 21.16 17.195 68.91 52.995 139.48 107.788 209.74 162.856z"/><path d="m1667.54 386.839-205.68-164.651c-6.71-5.377-13.39-11.228-20.45-17.421-23.31-20.438-49.72-43.603-84.26-53.766-33.4-9.827-73.95-6.087-120.52 11.119-44.78 16.539-85.62 38.534-125.11 59.805-25.75 13.866-52.37 28.202-79.72 40.819-82.205 37.925-154.049 60.324-226.093 70.494-29.888 4.218-59.371 6.341-87.965 6.341-8.667 0-17.246-.195-25.735-.585-40.033-1.841-76.994-8.029-109.852-18.389-30.453-9.604-58.313-23.161-85.161-41.449-21.44-14.602-41.992-32.011-64.677-54.787-11.973-12.02-23.567-24.508-34.779-36.586-25.375-27.33-51.613-55.591-84.098-80.463-49.827-38.1491-115.229-68.0659-189.137-86.5172-84.3837-21.067608-169.5145-25.97937-239.707-13.82895-67.959 11.76345-141.718 48.85795-143.076 102.50715l-.274-.003c.607-23.9805 16.026-46.7318 44.589-65.7949 25.826-17.2365 60.874-30.3334 98.689-36.87832 37.0602-6.414221 77.9012-8.14153 121.3831-5.13138 39.0439 2.70165 78.9121 9.0845 118.4969 18.9673 36.571 9.1298 71.303 21.1477 103.235 35.7209 32.199 14.6952 61.138 31.801 86.01 50.8434 32.498 24.881 58.745 53.149 84.125 80.486 11.212 12.076 22.806 24.562 34.776 36.58 33.098 33.232 80.028 74.194 149.729 96.174 79.934 25.205 165.587 20.774 223.367 12.619 72.009-10.164 143.82-32.554 225.994-70.464 27.34-12.613 53.96-26.949 79.7-40.811 39.5-21.275 80.35-43.275 125.15-59.823 46.65-17.235 87.29-20.978 120.78-11.125 15.46 4.551 30.6 12.054 46.28 22.943 13.8 9.584 26.15 20.41 38.08 30.879 7.07 6.192 13.74 12.04 20.45 17.416l205.68 164.65z"/><path d="m1665.89 374.18c-52.38-45.844-97.32-83.045-141.42-117.07-21.41-16.528-43.28-32.798-64.99-48.355-6.57-4.707-13.08-9.712-19.97-15.013-17.31-13.322-35.21-27.096-55.82-37.319-11.06-5.499-21.71-9.437-32.55-12.037-33.29-8.062-72.34-2.732-116.07 15.844-22.64 9.598-43.25 20.522-60.43 29.941-18.18 9.971-36.12 20.968-53.46 31.602-24.94 15.286-50.72 31.091-78.44 44.666-16.86 8.284-33.95 15.687-50.808 22.003-33.719 12.637-69.91 23.05-107.569 30.949-23.267 4.826-46.647 8.475-69.486 10.842-19.684 2.032-39.404 3.205-58.615 3.486-28.753.421-56.766-1.188-83.263-4.787-28.172-3.827-54.834-9.937-79.241-18.16-21.765-7.333-42.323-16.565-62.848-28.228-38.246-21.714-68.752-46.822-91.055-66.27-10.956-9.599-21.654-19.388-32.001-28.854-29.791-27.262-57.931-53.011-93.144-75.947-28.719-18.5841-61.487-34.6214-97.4-47.6694-27.599-10.0275-57.615-18.2283-89.215-24.3758-7.527-1.4624-15.196-2.8254-22.789-4.0472-32.6906-5.2517-69.492-8.6714-109.3795-10.1652-40.2145-1.5408-75.0071-.2074-106.3595 4.0804-17.724 2.4053-34.897 6.1789-51.047 11.2144-57.016 17.7786-93.628 47.6239-97.937 79.8378l-.343-.019c1.149-8.588 4.521-17.047 10.019-25.1445 5.224-7.6919 12.399-15.1101 21.325-22.0489 16.864-13.1073 39.959-24.4577 66.785-32.8223 16.175-5.0443 33.375-8.8231 51.127-11.2319 31.3849-4.2913 66.205-5.6264 106.45247-4.0838 39.90943 1.4937 76.73013 4.9169 109.44253 10.1721 7.601 1.2236 15.273 2.5866 22.806 4.0507 31.624 6.151 61.665 14.3588 89.286 24.3949 35.938 13.0568 68.733 29.1081 97.466 47.7037 35.235 22.95 63.381 48.707 93.183 75.976 10.343 9.466 21.041 19.253 31.995 28.85 22.292 19.439 52.784 44.535 91.009 66.235 20.503 11.65 41.039 20.874 62.778 28.199 47.769 16.093 102.386 23.805 162.337 22.922 19.194-.281 38.9-1.454 58.568-3.485 22.822-2.367 46.186-6.011 69.434-10.834 37.637-7.894 73.806-18.3 107.503-30.93 16.844-6.311 33.924-13.71 50.774-21.987 27.7-13.568 53.48-29.37 78.4-44.651 17.36-10.635 35.29-21.635 53.49-31.611 17.18-9.424 37.8-20.351 60.45-29.956 19.48-8.271 38.33-13.985 56.05-16.984 21.76-3.685 42.06-3.308 60.34 1.119 10.88 2.609 21.56 6.557 32.65 12.068 20.63 10.239 38.54 24.022 55.87 37.353 6.89 5.298 13.39 10.304 19.95 15.007 21.73 15.56 43.59 31.83 65.01 48.363 44.1 34.028 89.05 71.232 141.43 117.08z"/><path d="m1664.23 361.52c-48.56-46.619-94.14-85.631-139.33-119.262-22.05-16.428-44.86-32.22-67.81-46.936-6.09-3.904-12.1-7.962-18.46-12.256-19.06-12.862-38.77-26.161-60.84-35.362-11.15-4.666-21.83-7.915-32.66-9.934-41.47-7.732-83.59 6.917-111.63 20.566-19.86 9.642-38 20.545-56.38 31.799-16.08 9.852-31.22 20.449-47.24 31.667-23.78 16.652-48.37 33.872-76.19 48.33-16.51 8.626-33.75 16.084-51.22 22.167-32.553 11.333-68.197 20.133-108.972 26.907-22.82 3.789-46.189 6.489-69.459 8.021-19.635 1.278-39.234 1.734-58.255 1.353-28.3-.562-55.961-3.086-82.221-7.501-27.579-4.638-53.894-11.414-78.211-20.142-21.306-7.644-41.877-17.13-62.892-28.996-38.164-21.521-70.857-45.379-95.073-63.761-8.964-6.804-17.785-13.651-26.317-20.274-33.98-26.375-66.074-51.29-105.09-72.279-29.159-15.6866-61.896-28.9508-97.296-39.4227-26.785-7.9237-55.175-13.8603-86.788-18.1498-7.296-.9883-14.719-1.879-22.059-2.6477-32.2394-3.3587-66.6473-4.6293-108.27703-5.9436-30.00837-.9952-69.29127-1.6506-107.02997 2.1526-17.873 1.7674-35.15 4.8368-51.355 9.1194-57.054 15.0821-95.757 41.4288-103.534 70.4818l-.407-.044c2.061-7.704 6.238-15.26 12.408-22.46 5.88-6.861 13.608-13.4386 22.965-19.5565 17.782-11.6223 41.437-21.5347 68.409-28.6636 16.235-4.2912 33.545-7.3659 51.448-9.1368 37.7745-3.8084 77.0876-3.1513 107.11519-2.1561 41.64351 1.3143 76.06241 2.5849 108.32381 5.9454 7.346.7704 14.774 1.6611 22.078 2.6494 31.643 4.2947 60.061 10.2366 86.876 18.1689 35.435 10.4824 68.2 23.7571 97.389 39.4593 39.044 21.005 71.152 45.927 105.142 72.312 8.53 6.622 17.351 13.468 26.315 20.271 24.21 18.375 56.89 42.224 95.032 63.734 20.99 11.855 41.539 21.329 62.82 28.966 47.815 17.159 101.731 26.448 160.242 27.609 19.006.38 38.585-.075 58.201-1.353 23.248-1.53 46.598-4.227 69.395-8.014 40.742-6.767 76.357-15.56 108.877-26.882 17.46-6.077 34.67-13.524 51.16-22.142 27.8-14.446 52.38-31.658 76.15-48.302 16.03-11.223 31.16-21.822 47.26-31.679 18.38-11.261 36.53-22.167 56.42-31.82 18.17-8.849 36.1-15.214 53.28-18.923 20.84-4.497 40.59-5.064 58.71-1.686 10.87 2.027 21.59 5.287 32.77 9.967 22.11 9.218 41.84 22.53 60.91 35.402 6.36 4.293 12.38 8.348 18.46 12.251 22.96 14.721 45.77 30.518 67.82 46.951 45.21 33.64 90.8 72.659 139.36 119.289z"/><path d="m1662.57 348.858c-45.45-48.028-90.34-87.756-137.25-121.454-22.67-16.326-46.43-31.638-70.61-45.514-5.16-2.967-10.48-6.115-15.63-9.158-21.24-12.574-43.21-25.575-67.2-33.748-11.25-3.863-21.97-6.425-32.75-7.831-41.38-5.402-81.13 10.77-107.18 25.285-17.67 9.799-33.81 20.906-49.42 31.648l-2.93 2.011c-14.17 9.745-27.47 20.433-41.55 31.751-22.42 18.021-45.61 36.653-73.42 51.974-16.18 8.98-33.55 16.494-51.63 22.333-31.516 10.181-66.592 17.446-110.376 22.863-22.641 2.801-45.999 4.551-69.429 5.199-19.585.521-39.063.26-57.898-.781-57.021-3.135-110.299-14.015-158.357-32.336-20.775-7.92-41.36-17.654-62.929-29.765-36.502-20.45-68.967-41.471-99.088-61.249-4.04-2.651-8.035-5.284-12.001-7.897-41.14-27.102-79.997-52.701-125.664-72.404-29.813-12.863-62.517-23.3528-97.2-31.1788-25.463-5.7449-53.059-9.6458-84.359-11.9256-7.054-.5107-14.229-.9307-21.327-1.248-17.8566-.7843-36.796-.9116-56.8483-1.0458-16.1061-.108-32.7591-.2196-50.33266-.6745-33.94074-.9534-72.40744-2.0323-107.70304.2266-18.211 1.166-35.592 3.5295-51.663 7.026-57.032 12.4101-97.829 35.2621-109.132 61.1301l-.464-.082c2.979-6.82 7.958-13.473 14.798-19.774 6.54-6.026 14.817-11.767 24.6-17.064 18.711-10.1302 42.932-18.6011 70.039-24.4994 16.106-3.5052 33.523-5.8739 51.77-7.0417 35.3311-2.2607 73.817-1.1801 107.77152-.2266 17.56258.4531 34.21558.5664 50.31618.6745 20.0606.1342 39.0054.2615 56.8783 1.0475 7.104.319 14.287.7391 21.347 1.2498 31.338 2.2816 58.967 6.1876 84.466 11.9412 34.723 7.8348 67.463 18.3367 97.31 31.2137 45.707 19.72 84.584 45.332 125.741 72.446 3.965 2.612 7.963 5.244 12 7.897 30.116 19.775 62.57 40.79 99.061 61.233 21.547 12.097 42.11 21.823 62.861 29.732 47.994 18.298 101.204 29.162 158.151 32.295 18.813 1.038 38.271 1.3 57.834.779 23.405-.649 46.742-2.397 69.358-5.194 43.74-5.412 78.774-12.668 110.249-22.835 18.04-5.827 35.38-13.327 51.53-22.291 27.78-15.302 50.95-33.924 73.35-51.935 14.09-11.322 27.4-22.016 41.58-31.768l2.93-2.011c15.62-10.747 31.77-21.861 49.45-31.67 26.14-14.563 66.03-30.782 107.6-25.356 10.83 1.414 21.59 3.985 32.89 7.863 24.04 8.19 46.03 21.205 67.3 33.793 5.14 3.043 10.46 6.191 15.62 9.156 24.19 13.883 47.96 29.204 70.65 45.539 46.92 33.712 91.83 73.454 137.29 121.498z"/><path d="m1660.91 336.195c-41.73-48.754-87.2-90.354-135.15-123.641-23.32-16.224-48.02-31.059-73.42-44.093-3.67-1.882-7.43-3.836-11.06-5.726-24.01-12.481-48.84-25.39-75.29-32.466-11.35-3.07-22.09-4.944-32.85-5.731-41.26-3.019-78.65 14.649-102.75 30.003-14.96 9.486-28.47 20.034-41.53 30.236-2.26 1.766-4.51 3.528-6.78 5.283-12.42 9.642-24.04 20.414-36.33 31.817-20.91 19.385-42.53 39.43-70.17 55.64-16.24 9.518-33.26 16.877-52.05 22.5-39.287 11.76-78.554 16.112-111.78 18.821-22.473 1.83-45.82 2.632-69.398 2.377-19.525-.235-38.885-1.216-57.538-2.914-55.31-5.022-107.89-17.48-156.28-37.032-20.135-8.132-40.731-18.12-62.971-30.532-22.465-12.507-43.399-24.543-63.647-36.183-13.759-7.911-26.757-15.383-39.45-22.552-47.981-27.1-91.93-50.927-143.919-68.054-30.454-10.031-63.125-17.748-97.107-22.937-24.356-3.7199-50.39-5.5309-81.929-5.7035-6.804-.0313-13.735.0192-20.597.1517-10.423.2144-21.2063.6623-32.6188 1.1381-21.9017.9116-46.73 1.9452-73.4737 1.3666-10.18417-.2214-20.57441-.5334-30.6239-.8367-25.8479-.7791-52.5751-1.5844-77.7552-.8645-18.4914.5299-35.9794 2.1892-51.9734 4.9323-56.936 9.77-99.824 29.129-114.73 51.786l-.508-.134c3.902-5.933 9.684-11.681 17.183-17.086 7.203-5.191 16.03-10.094 26.23-14.572 19.657-8.628 44.441-15.657 71.677-20.33 16.032-2.7505 33.559-4.415 52.0912-4.9449 25.2076-.7216 51.9458.0854 77.8074.8645 10.04673.3033 20.43699.6153 30.6184.8367 26.7189.5786 51.5281-.4532 73.4187-1.3648 11.4181-.4758 22.2043-.9238 32.6383-1.1382 6.87-.1325 13.806-.183 20.618-.1516 31.583.1708 57.656 1.987 82.053 5.7113 34.024 5.196 66.739 12.923 97.231 22.968 23.484 7.735 47.282 17.536 72.753 29.96 22.804 11.122 44.986 23.292 71.279 38.142 12.693 7.171 25.691 14.643 39.453 22.555 20.244 11.637 41.179 23.673 63.638 36.179 22.218 12.4 42.793 22.376 62.903 30.501 48.323 19.525 100.83 31.966 156.062 36.981 18.632 1.696 37.967 2.675 57.469 2.91 23.551.255 46.874-.545 69.319-2.375 33.185-2.704 72.399-7.051 111.617-18.79 18.74-5.607 35.72-12.947 51.91-22.441 27.6-16.182 49.2-36.211 70.09-55.58 12.3-11.41 23.92-22.187 36.36-31.84 2.26-1.755 4.52-3.517 6.78-5.281 13.07-10.209 26.58-20.764 41.57-30.262 15.67-9.989 31.76-17.674 47.8-22.84 19-6.12 37.64-8.563 55.39-7.263 10.81.791 21.61 2.674 33.01 5.755 26.51 7.096 51.37 20.02 75.41 32.518 3.64 1.889 7.39 3.843 11.06 5.724 25.42 13.044 50.14 27.893 73.48 44.129 25.46 17.675 50.4 37.814 74.11 59.856 20.96 19.481 41.53 40.965 61.12 63.853z"/><path d="m1659.25 323.529c-38.62-50.151-83.39-92.485-133.06-125.827-23.95-16.121-49.6-30.476-76.22-42.67-1.27-.581-2.54-1.161-3.81-1.743-27.68-12.696-56.31-25.824-86.05-31.735-11.52-2.29-22.3-3.477-32.95-3.63-41.1-.59-76.15 18.555-98.31 34.718-13.04 9.456-24.62 19.82-35.82 29.842-2.76 2.479-5.63 5.041-8.45 7.537-10.77 9.506-20.77 20.314-31.36 31.759-19.27 20.816-39.19 42.341-66.69 59.429-15.91 9.886-33.07 17.301-52.46 22.669-38.192 10.575-76.975 13.352-113.194 14.778-22.333.878-45.672.728-69.368-.445-19.461-.993-38.698-2.693-57.178-5.049-53.427-6.798-105.31-20.836-154.2-41.726-19.579-8.365-39.601-18.31-63.006-31.299-44.482-24.618-77.513-41.957-107.098-56.22-58.844-28.367-103.755-45.057-150.166-55.804-31.072-7.195-63.71-12.14-97.013-14.699-23.105-1.774-47.626-1.615-79.503.52-6.532.443-13.215.964-19.865 1.551-6.282.563-12.663 1.208-19.421 1.89-24.9489 2.518-53.2287 5.373-85.5949 4.84-17.05966-.281-34.4849-1.049-51.3357-1.792-19.1509-.844-38.9531-1.717-57.7276-1.835-18.8238-.119-36.4198.836-52.2838 2.841-56.747 7.165-101.732 23.035-120.333 42.45l-.528-.204c4.832-5.044 11.416-9.888 19.569-14.397 7.87-4.354 17.241-8.417 27.854-12.079 20.616-7.115 45.969-12.703 73.317-16.155 15.908-2.008 33.542-2.967 52.4103-2.849 18.7909.119 38.6041.992 57.7633 1.838 16.8454.742 34.26228 1.511 51.3082 1.791 32.3085.532 60.5581-2.32 85.4802-4.835 6.76-.683 13.146-1.326 19.431-1.891 6.658-.587 13.347-1.108 19.885-1.553 31.926-2.137 56.488-2.297 79.643-.517 33.35 2.562 66.034 7.514 97.15 14.719 46.475 10.761 91.432 27.468 150.328 55.86 29.596 14.268 62.638 31.612 107.131 56.237 23.389 12.979 43.389 22.914 62.946 31.27 48.824 20.86 100.63 34.879 153.977 41.666 18.456 2.353 37.67 4.049 57.104 5.042 23.669 1.172 46.977 1.322 69.283.445 36.164-1.424 74.881-4.194 112.985-14.744 19.32-5.348 36.42-12.738 52.27-22.589 27.44-17.052 47.35-38.554 66.59-59.348 10.6-11.451 20.61-22.268 31.39-31.788 2.83-2.495 5.69-5.057 8.46-7.535 11.2-10.031 22.79-20.402 35.85-29.873 14.46-10.549 29.63-18.893 45.07-24.802 18.08-6.921 36.16-10.301 53.72-10.051 10.72.153 21.55 1.347 33.13 3.648 29.83 5.931 58.5 19.077 86.22 31.792 1.27.582 2.54 1.164 3.81 1.743 26.65 12.208 52.33 26.581 76.31 42.719 49.71 33.371 94.52 75.738 133.16 125.924z"/><path d="m934.55 318.475c-1.541 0-3.061-.002-4.556-.007-22.218-.06-45.548-1.158-69.338-3.267-19.39-1.751-38.505-4.169-56.815-7.183-26.161-4.298-52.416-10.475-78.041-18.359-24.746-7.613-49.668-17.053-74.076-28.06-23.915-10.784-46.254-22.8-63.044-32.064-39.286-21.617-76.665-39.685-111.097-53.704-55.769-22.704-105.467-36.545-156.406-43.557-30.732-4.23-63.702-6.461-95.447-6.461-.492 0-.981 0-1.473.001-27.272.06-53.163 3.274-77.077 6.739-6.224.908-12.663 1.9-19.137 2.951-3.548.582-7.101 1.181-10.86 1.816-26.5156 4.481-56.5707 9.558-93.0836 9.142-22.23697-.255-44.9493-1.715-66.9142-3.129-14.1826-.913-28.846-1.856-42.8334-2.426-19.2278-.783-36.9228-.532-52.5968.749-56.444 4.609-103.526 16.991-125.947 33.124l-.517-.287c11.5-8.274 28.799-15.438 51.415-21.294 21.6-5.592 47.522-9.733 74.961-11.973 15.716-1.283 33.457-1.537 52.7288-.751 14.0011.57 28.6728 1.514 42.8608 2.428 21.9512 1.413 44.64977 2.874 66.8565 3.127 36.4195.416 66.4223-4.654 92.8939-9.127 3.762-.636 7.315-1.235 10.866-1.818 6.48-1.051 12.924-2.044 19.153-2.952 23.955-3.471 49.891-6.69 77.228-6.751 32.251-.071 65.812 2.167 97.068 6.47 26.29 3.62 51.778 8.949 77.915 16.29 25.172 7.071 50.92 16.01 78.714 27.327 34.46 14.029 71.866 32.111 111.176 53.742 16.777 9.258 39.099 21.266 62.99 32.038 49.528 22.334 100.633 37.929 151.894 46.353 18.286 3.01 37.376 5.424 56.739 7.174 23.759 2.106 47.057 3.204 69.244 3.261 34.719.091 75.036-.652 114.346-10.7 19.91-5.086 37.12-12.524 52.64-22.736 27.25-17.935 45.32-40.955 62.79-63.218 8.99-11.452 17.48-22.269 26.71-31.632 2.96-3 5.94-6.09 8.83-9.079 9.75-10.099 19.83-20.54 31.44-30.191 13.27-11.103 27.52-20.109 42.33-26.767 17.18-7.72 34.69-12.039 52.05-12.837 10.71-.493 21.59.01 33.24 1.541 31.17 4.089 62.06 15.969 93.6 28.827 27.49 11.211 54.86 25.495 79.14 41.309 26.96 17.515 52.3 38.064 75.31 61.073 20.49 20.499 39.26 43.064 55.79 67.069l-.63.174c-35.49-51.551-79.55-94.62-130.96-128.011-24.25-15.791-51.57-30.054-79.03-41.246-31.48-12.836-62.31-24.693-93.36-28.768-11.59-1.522-22.4-2.022-33.05-1.532-31.9 1.469-65.24 15.472-93.88 39.433-11.59 9.634-21.67 20.066-31.41 30.154-2.88 2.991-5.87 6.083-8.83 9.083-9.21 9.346-17.69 20.154-26.67 31.595-8.58 10.923-17.44 22.22-27.61 33.079-11.54 12.31-23.08 22.204-35.3 30.248-15.59 10.257-32.88 17.728-52.88 22.838-17.63 4.507-36.58 7.486-57.939 9.111-18.085 1.368-36.249 1.621-52.111 1.621z"/><path d="m978.618 319.349c-14.012 0-27.472-.53-39.514-1.067-22.141-.986-45.46-3.034-69.308-6.088-19.307-2.508-38.302-5.642-56.455-9.318-49.709-10.045-98.786-26.765-150.034-51.113-22.349-10.617-43.418-22.041-63.078-32.83-38.812-21.238-77.532-38.459-115.089-51.186-55.235-18.718-106.915-28.669-162.639-31.315-31.75-1.508-65.232-.892-96.829 1.778-26.447 2.235-51.38 7.627-74.655 12.957-5.823 1.341-12.017 2.805-18.407 4.351-1.596.389-3.206.784-4.839 1.183-26.807 6.575-57.1393 14.014-96.0678 14.014-.6567 0-1.3107-.002-1.973-.007-26.33701-.169-53.2264-2.553-79.2336-4.861-10.3105-.915-20.9729-1.86-31.2037-2.625-19.9839-1.492-37.2909-1.933-52.9129-1.344-56.821 2.144-104.782 10.817-131.581 23.801l-.459-.382c13.249-6.418 32.405-11.99 55.392-16.114 22.611-4.056 49.099-6.747 76.601-7.784 15.667-.591 33.018-.15 53.0451 1.345 10.2418.766 20.9069 1.712 31.2202 2.625 25.9825 2.305 52.8471 4.687 79.1346 4.856 39.7391.258 70.5661-7.305 97.7611-13.975 1.629-.399 3.242-.795 4.839-1.185 6.395-1.548 12.591-3.012 18.42-4.352 23.314-5.341 48.294-10.741 74.812-12.982 31.646-2.674 65.183-3.291 96.986-1.782 27.614 1.311 53.943 4.407 80.489 9.461 27.34 5.207 54.309 12.372 82.449 21.91 37.604 12.745 76.373 29.986 115.227 51.246 19.651 10.785 40.706 22.202 63.037 32.808 51.179 24.315 100.181 41.011 149.811 51.04 18.125 3.669 37.095 6.799 56.375 9.304 23.814 3.05 47.101 5.097 69.209 6.08 37.203 1.656 76.782 2.506 115.712-6.657 20.49-4.823 37.83-12.307 53-22.882 27.03-18.836 43.86-44.53 58.71-67.199 7.47-11.406 14.52-22.18 22.31-31.364 2.81-3.313 5.64-6.738 8.37-10.05 8.55-10.362 17.39-21.076 27.86-31.083 12.11-11.657 25.44-21.325 39.6-28.736 16.27-8.511 33.21-13.768 50.36-15.621 10.72-1.159 21.64-1.344 33.37-.57 32.77 2.167 66.06 12.872 97.16 24.12 28.71 10.384 57.06 24.182 81.98 39.9 27.71 17.434 53.25 38.187 75.9 61.681 20.26 21.01 38.14 44.115 53.14 68.678l-.7.172c-31.9-52.209-76.46-97.229-128.88-130.193-24.86-15.688-53.16-29.46-81.81-39.824-31.03-11.221-64.23-21.9-96.87-24.058-11.66-.771-22.5-.586-33.15.565-31.67 3.421-63.44 19.099-89.46 44.148-10.45 9.985-19.28 20.689-27.83 31.041-2.73 3.313-5.56 6.738-8.37 10.055-7.77 9.163-14.82 19.926-22.28 31.32-14.87 22.704-31.73 48.44-58.85 67.339-15.26 10.632-32.69 18.158-53.29 23.009-17.88 4.208-37.17 6.645-58.969 7.445-5.894.226-11.764.315-17.543.315z"/><path d="m1006.28 321.236c-.2 0-.4 0-.6 0-19.805-.032-39.247-1.569-57.467-3.141-22.107-1.907-45.413-4.907-69.274-8.912-19.22-3.261-38.093-7.115-56.093-11.452-47.722-11.481-94.732-29.212-147.948-55.805-19.164-9.575-38.024-19.884-56.265-29.853-2.281-1.248-4.565-2.494-6.848-3.74-39.014-21.233-79.077-37.609-119.075-48.67-54.77-15.145-110.008-21.384-168.871-19.075-32.275 1.267-65.727 4.73-96.738 10.015-24.469 4.171-46.271 10.863-72.235 19.177-5.262 1.692-10.882 3.519-17.68 5.75l-.38.125c-13.116 4.333-27.983 9.243-44.6577 12.977-19.1509 4.288-37.7303 6.351-56.7823 6.327-29.70877-.047-60.0277-3.554-89.3463-6.948-7.1833-.831-14.6139-1.69-21.7862-2.468-20.5689-2.225-37.9805-3.35-53.2295-3.435-56.147-.314-106.167 4.964-137.23 14.477l-.357-.47c15.215-4.661 35.74-8.443 59.354-10.939 23.658-2.502 50.715-3.743 78.242-3.589 15.292.085 32.7477 1.211 53.3606 3.442 7.1778.778 14.6085 1.637 21.7945 2.468 29.2829 3.389 59.56331 6.892 89.2007 6.939h.3984c42.3937 0 74.6908-10.667 100.6598-19.244l.382-.126c6.801-2.233 12.421-4.059 17.686-5.752 26.008-8.328 47.849-15.031 72.394-19.214 31.064-5.296 64.57-8.764 96.901-10.033 28.804-1.13 55.974-.269 83.067 2.635 29.195 3.129 57.387 8.52 86.183 16.484 40.074 11.082 80.206 27.483 119.283 48.751 2.284 1.247 4.567 2.495 6.848 3.743 18.233 9.964 37.088 20.271 56.236 29.838 53.146 26.56 100.088 44.267 147.73 55.729 17.975 4.331 36.821 8.178 56.013 11.435 23.828 4.001 47.101 6.995 69.173 8.898 39.536 3.413 78.237 5.78 117.067-2.614 21.08-4.556 38.53-12.088 53.36-23.027 26.8-19.76 41.43-47.141 54.35-71.3 6.04-11.311 11.75-21.995 18.19-30.973 2.48-3.455 4.97-7.028 7.37-10.485 7.52-10.806 15.3-21.979 24.83-32.513 10.97-12.217 23.38-22.55 36.86-30.71 15.37-9.301 31.74-15.492 48.68-18.3993 10.5-1.8023 21.21-2.6808 32.73-2.6808.25 0 .5 0 .75.0018 35.8.1185 72.63 10.4333 100.73 19.4063 29.93 9.561 59.26 22.87 84.82 38.491 28.47 17.353 54.21 38.311 76.5 62.293 20.01 21.52 36.99 45.168 50.48 70.288l-.78.169c-20.07-37.377-58.37-90.681-126.78-132.372-25.49-15.586-54.76-28.864-84.61-38.402-28.02-8.948-64.74-19.2336-100.36-19.3504-11.73-.0436-22.61.8314-33.26 2.6615-31.38 5.3879-61.58 22.7409-85.05 48.8629-9.51 10.511-17.27 21.671-24.78 32.465-2.41 3.458-4.9 7.033-7.37 10.49-6.43 8.955-12.13 19.626-18.17 30.924-12.94 24.203-27.6 51.636-54.5 71.473-14.93 11.012-32.5 18.594-53.72 23.18-17.98 3.885-37.41 5.777-59.38 5.777z"/><path d="m1028.27 323.689c-4.27 0-8.62-.087-13.09-.261-19.53-.762-38.513-3.047-57.859-5.522-22.427-2.869-45.076-6.707-69.242-11.734-19.121-4.012-37.871-8.582-55.73-13.586-45.307-12.675-90.292-31.334-145.859-60.498-13.801-7.242-27.596-14.838-40.937-22.185-7.263-3.998-14.771-8.134-22.21-12.173-39.478-21.376-80.88-36.903-123.056-46.151-55.727-12.22-113.001-14.458-175.101-6.841-32.809 4.024-66.23 10.336-96.648 18.251-24.435 6.358-45.721 15.288-68.258 24.742l-1.558.653c-3.52 1.482-7.079 2.984-10.681 4.504-2.075.877-4.164 1.759-6.271 2.648-13.141 5.572-27.335 11.385-43.6114 15.859-18.8981 5.194-37.5901 7.75-57.1505 7.812-32.56404.101-65.7793-4.699-97.8981-9.346-4.5837-.664-9.3268-1.349-13.9297-1.999-21.5802-3.05-38.5933-4.805-53.5483-5.527-55.185-2.661-107.266-.786-142.891 5.147l-.228-.547c35.719-5.949 87.906-7.831 143.188-5.165 14.996.724 32.053 2.484 53.6744 5.54 4.6057.651 9.3487 1.336 13.9352 2.001 31.7258 4.589 64.5207 9.332 96.6532 9.332.3463 0 .6926 0 1.0416-.002 41.561-.133 71.1456-11.229 100.2726-23.576 2.107-.889 4.196-1.771 6.271-2.648 3.602-1.521 7.158-3.022 10.681-4.505l1.558-.654c22.575-9.47 43.897-18.415 68.412-24.794 30.473-7.931 63.952-14.252 96.818-18.284 62.257-7.636 119.685-5.391 175.563 6.862 42.281 9.273 83.779 24.834 123.345 46.258 7.439 4.04 14.949 8.174 22.212 12.174 13.336 7.345 27.128 14.94 40.921 22.177 55.501 29.13 100.423 47.763 145.65 60.417 17.835 4.995 36.557 9.56 55.65 13.566 24.13 5.02 46.747 8.852 69.14 11.716 33.993 4.349 76.301 9.763 118.431 1.424 21.66-4.286 39.23-11.864 53.71-23.17 26.54-20.706 38.84-49.83 49.7-75.523 4.71-11.163 9.17-21.706 14.37-30.456 2.02-3.409 4.05-6.935 6.02-10.346 6.58-11.44 13.39-23.267 22.13-34.517 9.87-12.785 21.35-23.781 34.12-32.684 14.48-10.089 30.29-17.2125 47-21.1743 10.72-2.5431 21.71-4.11 33.59-4.7915 15.92-.9134 32.86.0627 51.8 2.977 16.02 2.4681 33.19 6.2992 52.51 11.7148 31.14 8.734 61.45 21.557 87.65 37.082 29.24 17.271 55.18 38.437 77.11 62.905 19.75 22.033 35.84 46.222 47.82 71.898l-.86.161c-25.3-54.207-69.58-101.992-124.68-134.549-26.13-15.483-56.35-28.27-87.41-36.978-41.61-11.6673-74.61-16.3229-103.86-14.6461-11.8.6763-22.71 2.2328-33.36 4.7566-39.75 9.4245-65.79 34.3385-80.63 53.5775-8.72 11.222-15.52 23.036-22.1 34.461-1.96 3.413-3.99 6.941-6.02 10.352-5.18 8.724-9.63 19.255-14.34 30.403-10.88 25.749-23.21 54.934-49.86 75.735-14.6 11.394-32.32 19.033-54.15 23.354-14.8 2.928-30.58 4.373-47.92 4.373z"/><path d="m1047.32 326.503c-29.06 0-56.996-4.735-80.898-8.786-22.487-3.81-45.125-8.572-69.209-14.556-19.013-4.758-37.642-10.046-55.367-15.72-53.133-16.987-100.5-41.37-143.771-65.19-8.835-4.863-17.76-9.875-26.389-14.723-11.981-6.731-24.372-13.691-36.788-20.398-40.069-21.587-82.808-36.268-127.029-43.636-57.206-9.529-116.522-7.767-181.337 5.389-33.372 6.774-66.76 15.933-96.557 26.489-22.981 8.14-42.426 18.416-63.012 29.296-1.459.77-2.921 1.544-4.391 2.318l-.797.422c-5.004 2.648-10.179 5.384-15.425 8.131-12.569 6.611-26.411 13.449-42.421 18.673-18.5845 6.064-37.3206 9.088-57.2849 9.245-35.0427.277-70.7587-5.972-105.2958-12.015-2.421-.423-4.831-.845-7.23-1.262-22.7756-3.963-39.3903-6.313-53.8663-7.62-53.801-4.856-107.948-6.383-148.558-4.189l-.083-.608c40.677-2.2 94.903-.671 148.775 4.192 14.518 1.311 31.1683 3.666 53.9851 7.636 2.399.417 4.809.838 7.2328 1.264 34.4711 6.031 70.1184 12.263 105.0265 11.992 43.3554-.342 73.8886-14.518 99.1046-27.779 5.246-2.746 10.42-5.483 15.424-8.129l.797-.422c1.471-.775 2.933-1.547 4.392-2.318 20.621-10.899 40.099-21.193 63.157-29.361 29.852-10.574 63.304-19.749 96.733-26.535 30.729-6.236 59.591-9.837 88.234-11.009 31.951-1.305 63.454.582 93.638 5.611 44.362 7.39 87.228 22.113 127.409 43.76 12.424 6.71 24.818 13.672 36.802 20.405 8.629 4.847 17.549 9.858 26.381 14.719 43.226 23.794 90.536 48.151 143.573 65.107 17.7 5.664 36.301 10.946 55.287 15.697 24.048 5.975 46.65 10.73 69.104 14.535 34.474 5.842 77.384 13.114 119.784 5.462 22.24-4.016 39.93-11.641 54.07-23.312 26.26-21.681 36.09-52.597 44.76-79.875 3.48-10.96 6.77-21.311 10.83-29.812 1.5-3.144 3-6.393 4.46-9.536 5.7-12.291 11.59-25.003 19.65-37.192 8.77-13.363 19.33-25.027 31.37-34.664 13.6-10.875 28.84-18.9312 45.32-23.9458 10.7-3.2559 21.73-5.513 33.71-6.9022 16.15-1.8702 34.07-1.8075 53.26.1865 16.8 1.7465 35.18 5.039 54.61 9.7886 32.36 7.908 63.66 20.2429 90.5 35.6719 29.99 17.191 56.14 38.561 77.71 63.517 19.49 22.545 34.69 47.278 45.17 73.511l-.94.149c-22.2-55.584-65.73-104.14-122.58-136.724-26.76-15.378-57.95-27.6731-90.2-35.5549-41.81-10.2157-76.92-13.4699-107.35-9.9438-11.9 1.3787-22.85 3.6202-33.48 6.8517-39.2 11.9308-63.08 38.285-76.21 58.294-8.04 12.158-13.93 24.852-19.62 37.128-1.45 3.143-2.96 6.393-4.46 9.541-4.05 8.473-7.33 18.811-10.81 29.757-4.17 13.123-8.9 27.996-15.76 41.94-7.86 15.976-17.41 28.466-29.18 38.185-6.8 5.619-14.62 10.402-23.24 14.216-9.28 4.101-19.82 7.235-31.33 9.313-13.17 2.379-26.39 3.325-39.39 3.325z"/><path d="m1064.5 329.589c-9.61 0-19.67-.593-30.31-1.776-20.94-2.33-40.981-6.559-58.667-10.287-22.292-4.701-45.567-10.549-69.176-17.38-18.892-5.497-37.4-11.503-55.004-17.855-50.528-18.209-94.059-42.421-141.682-69.88-4.232-2.44-8.53-4.929-12.685-7.338-16.364-9.48-33.284-19.283-50.522-28.545-40.734-21.84-84.81-35.674-131.004-41.119-58.269-6.869-121.38-.943-187.571 17.616-33.966 9.524-67.324 21.53-96.467 34.723-21.942 9.933-40.005 21.644-59.129 34.044-1.942 1.26-3.894 2.524-5.856 3.793-4.883 3.161-10.143 6.555-15.493 9.952-11.22 7.148-24.894 15.293-41.231 21.486-18.2883 6.934-37.071 10.428-57.4173 10.681-37.2467.465-75.1611-7.357-111.8278-14.922l-1.396-.287c-17.9528-3.702-36.9444-7.443-54.1859-9.714-52.553-6.921-107.323-11.727-154.218-13.531l.063-.652c46.944 1.806 101.765 6.615 154.364 13.543 17.2908 2.278 36.3154 6.024 54.2956 9.731l1.396.288c36.5871 7.547 74.4246 15.351 111.4898 14.889 42.8059-.534 72.3686-15.684 97.9396-31.977 5.35-3.396 10.604-6.789 15.488-9.949 1.962-1.267 3.913-2.533 5.856-3.791 19.156-12.421 37.252-24.153 59.266-34.119 29.198-13.219 62.619-25.248 96.648-34.789 31.055-8.706 61.616-14.706 90.827-17.829 33.378-3.568 66.131-3.512 97.352.167 46.37 5.466 90.607 19.349 131.478 41.264 17.253 9.271 34.18 19.077 50.553 28.563 4.155 2.407 8.453 4.896 12.685 7.336 47.576 27.433 91.061 51.619 141.498 69.796 17.579 6.341 36.06 12.339 54.925 17.829 23.575 6.821 46.812 12.66 69.071 17.354 34.887 7.359 78.317 16.514 121.137 9.499 22.84-3.742 40.64-11.413 54.42-23.454 25.97-22.685 33.49-56.877 39.53-84.352 2.35-10.702 4.57-20.81 7.58-29.037.95-2.593 1.91-5.265 2.84-7.85 4.81-13.428 9.78-27.315 17.24-40.743 11.53-20.896 33.42-48.8505 72.26-63.3574 10.72-4.0054 21.79-6.9546 33.83-9.0148 31.49-5.4678 68.99-3.6986 111.44 5.2551 33.57 7.0818 65.85 18.929 93.34 34.2621 30.75 17.109 57.1 38.684 78.31 64.13 9.74 11.671 18.33 24.137 25.57 37.051 6.91 12.335 12.6 25.144 16.94 38.072l-1.01.136c-19.09-56.965-61.88-106.293-120.49-138.899-27.39-15.2758-59.54-27.0777-92.99-34.1333-42.25-8.9137-79.55-10.6776-110.84-5.2447-11.95 2.0446-22.93 4.9711-33.58 8.9468-38.58 14.4059-60.34 42.2172-71.8 63.0112-7.45 13.393-12.41 27.26-17.22 40.671-.92 2.585-1.88 5.258-2.83 7.854-3 8.199-5.22 18.293-7.57 28.979-3.04 13.825-6.48 29.495-12.37 44.284-6.76 16.994-15.71 30.198-27.34 40.363-6.64 5.799-14.41 10.689-23.08 14.534-9.35 4.144-20.09 7.229-31.93 9.167-10.39 1.705-21.24 2.555-32.74 2.555z"/><path d="m1080.33 332.85c-11.52 0-23.66-.946-36.63-2.845-21.02-3.073-41.24-8.173-59.078-12.673-22.46-5.665-45.722-12.461-69.14-20.201-18.769-6.231-37.154-12.956-54.642-19.989-48.123-19.338-89.398-44.263-133.098-70.649-2.162-1.305-4.325-2.612-6.493-3.92-20.322-12.256-41.333-24.931-63.237-36.644-41.443-22.117-86.854-35.106-134.972-38.606-60.44-4.398-125.648 5.644-193.815 29.842-34.097 12.103-68.324 27.36-96.376 42.958-21.181 11.777-38.17 25.029-56.155 39.06-2.13 1.661-4.265 3.328-6.417 4.997-4.298 3.342-9.412 7.304-14.765 11.356-9.915 7.524-23.424 17.087-40.039 24.28-17.9964 7.793-36.8204 11.765-57.5487 12.14-17.0376.27-35.8396-1.398-57.482985-5.102-18.582115-3.179-36.556815-7.334-56.447015-12.041-18.1561-4.348-37.318-8.84-54.5093-11.807-50.924-8.788-104.714-16.483-159.872-22.876l.198-.685c55.191 6.395 109.011 14.097 159.962 22.889 17.2385 2.975 36.4279 7.474 54.606 11.826 33.339 7.89 74.8313 17.714 113.5151 17.099 44.2269-.802 72.6489-17.859 96.7739-36.173 5.351-4.049 10.462-8.009 14.757-11.348 2.152-1.67 4.287-3.336 6.414-4.996 18.016-14.054 35.035-27.328 56.285-39.144 28.109-15.629 62.402-30.915 96.565-43.041 68.374-24.272 133.807-34.339 194.477-29.926 23.262 1.693 46.112 5.623 67.909 11.682 23.389 6.499 46.148 15.613 67.646 27.084 21.929 11.725 42.954 24.407 63.286 36.673 2.169 1.309 4.334 2.614 6.497 3.92 43.657 26.362 84.897 51.263 132.927 70.565 17.463 7.022 35.82 13.738 54.562 19.959 23.385 7.728 46.612 14.515 69.038 20.171 35.249 8.89 79.109 19.952 122.489 13.537 23.49-3.476 41.41-11.194 54.77-23.594 25.75-23.683 30.33-59.863 34.01-88.932 1.32-10.397 2.57-20.217 4.63-28.159.43-1.638.85-3.285 1.28-4.941 3.85-14.957 7.84-30.424 14.76-45.518 9.89-21.711 29.68-51.1501 67.83-68.106 10.64-4.7305 21.74-8.3698 33.94-11.1272 16.96-3.8677 35.86-5.6857 56.17-5.4068 18.54.2545 38.34 2.2537 58.84 5.9401 34.79 6.2521 68.05 17.6112 96.19 32.8485 31.51 17.0254 58.06 38.8094 78.91 64.7434 9.57 11.9 17.86 24.622 24.63 37.813 6.48 12.633 11.61 25.73 15.22 38.926l-1.09.118c-15.73-57.503-58.88-108.921-118.38-141.0705-28.03-15.1711-61.14-26.4831-95.78-32.7108-42.71-7.6796-82.25-7.8679-114.35-.5473-12.1 2.7365-23.12 6.348-33.68 11.0418-37.88 16.8391-57.55 46.1268-67.39 67.7298-6.91 15.054-10.89 30.498-14.74 45.436-.42 1.656-.85 3.305-1.28 4.943-2.05 7.911-3.3 17.719-4.61 28.101-3.7 29.153-8.3 65.437-34.2 89.272-6.44 5.977-14.15 10.979-22.89 14.865-9.41 4.179-20.36 7.212-32.54 9.014-8.8 1.297-17.9 1.949-27.44 1.949z"/><path d="m1095.2 336.242c-13.12 0-27.02-1.346-42-4.047-21.19-3.823-41.54-9.792-59.484-15.058-22.683-6.655-45.934-14.402-69.108-23.023-18.634-6.955-36.894-14.399-54.278-22.122-42.806-19.013-79.391-42.305-118.124-66.964-6.331-4.032-12.88-8.199-19.376-12.297-22.836-14.397-42.336-26.269-63.268-37.405-42.182-22.41-88.926-34.553-138.937-36.094-62.841-1.936-130.154 12.217-200.064 42.066-34.729 14.829-68.925 33.008-96.287 51.191-20.613 13.699-36.728 28.61-53.787 44.396-2.114 1.956-4.235 3.918-6.37 5.883-3.804 3.505-8.838 8.124-14.034 12.755-21.869 19.535-50.44 39.648-96.5273 40.676-1.4372.03-2.8799.044-4.3199.044-35.988 0-72.729-9.034-110.3164-19.121l-2.3468-.634c-18.6178-5.041-36.2051-9.801-52.4846-13.266-61.349-13.059-120.682-24.081-165.518-32.225l.321-.713c44.848 8.147 104.197 19.172 165.568 32.235 16.3235 3.474 33.93 8.241 52.5726 13.287l2.344.635c38.9642 10.456 77.0159 19.783 114.1389 19.019 45.5755-1.018 73.9075-20.975 95.6145-40.364 5.194-4.628 10.223-9.243 14.026-12.747 2.135-1.966 4.254-3.927 6.367-5.882 17.087-15.811 33.226-30.747 53.905-44.488 27.417-18.222 61.682-36.438 96.48-51.297 32.298-13.79 64.606-24.379 96.027-31.475 36.051-8.141 71.295-11.746 104.746-10.716 50.27 1.548 97.25 13.751 139.63 36.265 20.961 11.154 40.481 23.037 63.339 37.447 6.499 4.097 13.047 8.267 19.381 12.298 38.695 24.636 75.244 47.905 117.967 66.879 17.36 7.714 35.593 15.147 54.199 22.091 23.141 8.61 46.357 16.345 69.006 22.99 35.558 10.432 79.798 23.413 123.838 17.569 24.08-3.195 42.11-10.958 55.13-23.733 25.42-24.762 26.94-62.977 28.17-93.684.4-10.018.78-19.483 1.99-27.109l.03-.174c2.72-17.076 5.53-34.733 11.97-52.154 5.59-15.195 13.36-28.857 23.11-40.608 10.99-13.2485 24.54-24.0969 40.28-32.2454 10.53-5.4521 21.67-9.7835 34.06-13.2398 33.46-9.393 74.47-10.8432 118.58-4.1902 17.76 2.6772 35.27 6.7332 52.06 12.0528 16.89 5.351 32.7 11.875 46.98 19.3874 32.28 16.9436 59.03 38.9332 79.52 65.3592 18.42 23.751 31.28 50.846 37.19 78.352l-1.16.1c-12.64-58.872-55.03-111.081-116.29-143.2413-28.65-15.063-62.73-25.8835-98.56-31.285-43.87-6.6147-84.62-5.1802-117.84 4.1483-12.29 3.4302-23.34 7.7267-33.79 13.1352-29.39 15.2146-51.17 40.2668-62.99 72.4478-6.43 17.376-9.24 35.008-11.95 52.06l-.03.174c-1.21 7.598-1.59 17.048-1.99 27.053-1.23 30.8-2.77 69.131-28.36 94.068-6.28 6.159-13.93 11.27-22.73 15.188-9.48 4.225-20.63 7.207-33.14 8.868-7.44.987-15.12 1.482-23.08 1.482z"/><path d="m64.4097 340.513c-16.0923 0-33.6165-1.989-53.3939-6.05-19.65108-4.035-39.0851-9.606-57.1616-15.023-3.2728-.987-6.521-1.971-9.7472-2.949-16.0594-4.868-31.2284-9.466-45.405-13.048-56.53-14.277-110.413-27.109-162.524-39.516l-8.634-2.056.434-.734 8.635 2.057c52.113 12.41 106.004 25.242 162.545 39.522 14.2152 3.591 29.4035 8.194 45.4822 13.069 3.2234.978 6.4715 1.963 9.7417 2.947 37.10644 11.121 76.5295 21.898 114.7654 20.937 47.0017-1.241 75.1697-24.464 94.4547-44.556 4.941-5.138 9.701-10.259 13.295-14.146 1.984-2.142 3.954-4.283 5.919-6.418 16.296-17.7 31.688-34.419 51.93-50.182 26.719-20.805 60.951-41.954 96.395-59.55 32.882-16.325 66.065-29.223 98.629-38.335 37.351-10.453 73.833-15.877 108.434-16.123 52.064-.491 100.42 10.869 143.707 33.764 23.996 12.706 45.51 26.451 63.394 38.222 9.731 6.405 19.462 12.971 28.874 19.321 33.314 22.479 67.763 45.722 106.397 64.548 17.258 8.412 35.373 16.562 53.837 24.223 22.85 9.459 46.054 18.142 68.977 25.808 35.82 11.982 80.4 26.893 125.19 21.601 24.65-2.912 42.8-10.721 55.47-23.872 25.08-25.885 23.39-66.194 22.03-98.582-.4-9.578-.79-18.626-.33-25.91 1.03-16.42 2.58-35.504 7.96-54.196 4.53-15.839 11.38-30.168 20.34-42.5887 10.14-14.0503 23.13-25.8294 38.62-35.0115 10.25-6.0848 21.75-11.2493 34.16-15.3523 17.72-5.8739 37.59-9.5673 59.09-10.9757 20.12-1.3194 41.34-.6257 63.07 2.0602 18.32 2.2659 36.38 5.9925 53.67 11.0785 17.4 5.1175 33.62 11.4933 48.22 18.9499 16.82 8.5859 32.29 18.725 45.97 30.1363 12.96 10.8123 24.45 22.8703 34.15 35.8373 18.14 24.261 30.08 51.916 34.52 79.969l-1.23.079c-9.54-60.244-51.16-113.2429-114.19-145.4099-28.87-14.7492-64.86-25.357-101.35-29.8697-45.12-5.5793-87.08-2.5221-121.34 8.8405-12.32 4.0699-23.72 9.1943-33.9 15.2303-29.17 17.301-48.88 43.2628-58.58 77.1678-5.37 18.641-6.92 37.692-7.94 54.087-.46 7.258-.08 16.291.32 25.857.67 15.978 1.43 34.09-1.12 51.598-2.96 20.316-9.85 35.825-21.08 47.415-6.11 6.341-13.7 11.561-22.56 15.514-9.56 4.27-20.91 7.204-33.74 8.718-6.47.766-12.94 1.113-19.37 1.113-38.49 0-75.79-12.477-106.63-22.792-22.951-7.678-46.191-16.374-69.071-25.847-18.491-7.671-36.631-15.833-53.913-24.257-38.714-18.864-73.199-42.132-106.546-64.632-9.409-6.348-19.137-12.912-28.863-19.314-17.859-11.757-39.343-25.483-63.295-38.165-43.053-22.772-91.127-34.067-142.899-33.582-81.306.579-157.074 29.842-206.319 54.291-35.372 17.56-69.535 38.665-96.197 59.427-20.181 15.717-35.551 32.409-51.822 50.082-1.965 2.135-3.938 4.275-5.922 6.419-3.597 3.889-8.359 9.013-13.303 14.157-8.096 8.434-20.805 20.712-37.639 29.915-8.176 4.469-16.876 7.981-25.859 10.44-10.0168 2.742-20.7725 4.283-31.9625 4.577-1.5856.044-3.1822.065-4.7898.065z"/><path d="m69.5768 364.777c-16.1117 0-33.6-2.142-53.2731-6.513-20.36828-4.525-40.5058-10.887-57.516-16.515-5.2267-1.733-10.4424-3.49-15.4878-5.189-14.1028-4.75-27.4252-9.238-39.9864-12.902-45.1085-13.159-89.9235-26.007-133.2655-38.433-14.336-4.11-29.159-8.359-43.525-12.486l.538-.755c14.367 4.127 29.19 8.377 43.526 12.487 43.342 12.425 88.162 25.275 133.2734 38.436 12.5941 3.674 25.933 8.166 40.0523 12.923 5.0426 1.699 10.2584 3.454 15.4796 5.187 35.27903 11.667 76.1997 24.018 115.3837 22.856 48.11-1.461 75.131-26.82 93.301-48.748 4.658-5.618 9.162-11.258 12.564-15.544 1.747-2.2 3.484-4.398 5.218-6.591 15.587-19.722 30.308-38.349 50.209-56.237 25.884-23.266 60.088-47.345 96.307-67.803 50.44-28.367 128.398-62.969 213.351-66.722 54.026-2.4503 103.751 8.067 147.788 31.263 19.786 10.426 39.352 22.453 63.446 38.999 12.177 8.361 24.26 17.028 35.944 25.406 30.402 21.8 61.834 44.342 97.253 63.158 17.158 9.117 35.15 17.984 53.473 26.354 22.188 10.125 45.384 19.756 68.94 28.628 36.18 13.545 81.21 30.405 126.54 25.633 24.86-2.562 43.64-10.641 55.83-24.01 24.73-27.056 19.42-71.322 15.54-103.642-1.08-9.07-2.11-17.637-2.31-24.548-.45-15.36-.41-35.611 3.92-56.065 7.48-35.4442 25.82-63.1509 54.52-82.3465 10.06-6.7628 21.59-12.6384 34.28-17.4648 18.05-6.8744 38.42-11.4985 60.54-13.7418 20.83-2.1125 42.76-2.0793 65.18.0994 18.91 1.8789 37.51 5.2848 55.28 10.1198 17.94 4.8839 34.58 11.1064 49.46 18.4949 17.2 8.5372 32.91 18.7111 46.7 30.241 13.07 10.9268 24.51 23.156 34.03 36.35 17.86 24.772 28.88 52.984 31.86 81.586l-1.3.054c-6.42-61.618-47.28-115.4086-112.09-147.5773-29.39-14.5941-66.37-24.6983-104.14-28.4492-46.55-4.5231-89.72.1569-124.84 13.5344-12.59 4.7862-24.03 10.6148-34.01 17.3236-28.5 19.0683-46.73 46.6181-54.17 81.8875-4.33 20.398-4.36 40.61-3.91 55.94.2 6.886 1.22 15.443 2.31 24.501 2 16.707 4.27 35.644 2.98 54.132-1.52 21.528-7.63 37.879-18.7 49.988-5.96 6.531-13.49 11.864-22.39 15.852-9.64 4.325-21.2 7.204-34.35 8.56-20.39 2.146-42.34.218-67.09-5.895-21.52-5.314-42.14-13.032-60.33-19.84-23.592-8.884-46.818-18.53-69.038-28.669-18.351-8.382-36.367-17.261-53.551-26.391-35.493-18.854-66.961-41.42-97.392-63.243-11.679-8.376-23.76-17.037-35.925-25.392-24.053-16.516-43.584-28.52-63.323-38.922-43.776-23.064-93.185-33.518-146.867-31.083-84.587 3.739-162.287 38.234-212.576 66.516-36.147 20.416-70.281 44.445-96.109 67.661-19.846 17.838-34.545 36.439-50.107 56.132-1.734 2.194-3.471 4.392-5.219 6.592-3.405 4.289-7.911 9.935-12.575 15.558-18.329 22.123-45.622 47.709-94.3943 49.189-1.734.05-3.4899.076-5.2569.076z"/><path d="m74.8472 389.045c-44.0233 0-90.2147-17.149-131.1629-32.353-12.5831-4.672-24.4683-9.085-35.7627-12.817l-182.4216-60.267.635-.772 182.4214 60.267c11.3246 3.741 23.2235 8.159 35.8232 12.837 42.531 15.792 90.7395 33.691 136.0241 32.139 49.1703-1.682 75.0733-29.176 92.1463-52.938 5.584-7.772 10.976-15.68 16.191-23.328 14.265-20.916 29.014-42.545 48.643-62.675 15.587-15.983 34.949-32.745 55.994-48.472 23.086-17.254 47.804-33.084 73.462-47.049 28.291-15.396 57.058-28.132 85.497-37.853 31.456-10.75 62.446-17.7695 92.113-20.8634 59.432-6.1963 113.485 3.2072 160.655 27.9524 39.2 20.562 72.517 45.989 104.738 70.579 28.046 21.404 57.046 43.535 89.885 62.453 37.931 21.851 78.983 42.015 122.022 59.932 36.26 15.096 81.39 33.885 127.9 29.662 39.28-3.566 61.99-20.236 69.42-50.965 6.33-26.138.31-57.144-4.52-82.057-1.65-8.49-3.21-16.51-3.97-23.013-4.21-35.85-1.53-65.444 8.21-90.4717 6.08-15.6155 15.05-29.5351 26.66-41.3717 12.97-13.2224 29.62-24.2451 49.49-32.7614 17.19-7.3676 36.56-12.7186 57.58-15.90482 20.01-3.03281 41.07-4.04897 62.61-3.02061 42.36 2.02188 83.8 11.88023 116.68 27.75723 17.57 8.4866 33.53 18.6971 47.43 30.3455 13.16 11.0401 24.57 23.4416 33.91 36.8625 17.57 25.282 27.67 54.054 29.19 83.202l-1.37.03c-3.24-62.072-44.36-118.0517-110-149.7446-69.7-33.657212-168.64-37.36107-235.27-8.8038-65.99 28.2888-93.39 81.8734-83.75 163.8174.76 6.482 2.31 14.491 3.96 22.971 4.84 24.966 10.88 56.039 4.52 82.295-3.46 14.301-10.42 25.795-20.68 34.163-5.77 4.704-12.73 8.549-20.68 11.425-8.46 3.061-18.29 5.116-29.23 6.109-4.47.406-9.02.61-13.65.61-16.85 0-34.8-2.703-54.47-8.179-22.16-6.171-43.55-15.074-60.73-22.227-43.095-17.943-84.205-38.133-122.191-60.015-32.913-18.958-61.943-41.115-90.02-62.542-32.179-24.559-65.455-49.954-104.556-70.464-46.854-24.5764-100.536-33.9188-159.558-27.7643-119.391 12.4483-242.375 88.4713-306.121 153.8363-19.577 20.074-34.306 41.674-48.552 62.562-5.219 7.651-10.613 15.565-16.202 23.344-11.336 15.776-22.531 27.072-35.233 35.546-7.928 5.289-16.529 9.458-25.565 12.391-10.046 3.261-20.9889 5.116-32.5251 5.512-1.8632.061-3.7401.092-5.6197.092z"/></g></svg>