<svg fill="none" height="698" viewBox="0 0 219 698" width="219" xmlns="http://www.w3.org/2000/svg"><g fill="#ccc"><path d="m-56.1653 697.162c-5.1785 0-11.365-2.146-19.602-7.006-21.861-13.181-44.2777-52.766-67.9467-94.629-13.033-22.989-26.483-46.766-40.003-66.253-19.741-35.206-53.21-59.465-85.602-82.98-23.669-17.166-46.016-33.411-63.324-53.467l-.035-.044c-12.999-15.589-19.081-30.652-18.594-46.022.938-29.996 26.9-56.707 56.998-87.622l2.885-2.978c22.313-23.033 50.326-53.861 90.885-99.883l3.441-3.766c36.284-39.761 81.466-89.2423 139.9941-119.2379 117.2295-69.4935 219.8269-15.6766 252.2189 42.6506 33.782 68.1803 30.863 140.5633-11.122 276.7913-43.965 142.009-141.3494 251.788-181.17891 292.381-16.30019 13.399-26.51819 25.266-33.95589 33.937-9.4534 10.947-15.6051 18.128-25.0585 18.128zm-273.4197-308.539c16.926 19.618 39.065 35.689 62.49 52.723 32.774 23.777 66.695 48.387 86.853 84.381 13.555 19.487 27.075 43.396 40.143 66.472 23.355 41.25 45.4249 80.222 66.2086 92.79 20.5403 12.042 25.3713 6.437 39.7252-10.203 7.5766-8.802 17.9685-20.888 34.372933-34.375 39.342967-40.154 136.032267-149.102 179.615267-289.84 41.393-134.258 44.417-205.328 11.573-271.581-31.453-56.5757-131.6525-108.7724-246.6576-40.5926-57.9374 29.7329-102.8064 78.8646-138.8474 118.3186l-3.406 3.766c-40.594 46.066-68.642 76.937-91.024 100.014l-2.885 2.978c-29.264 30.039-54.496 56.006-55.365 83.418-.417 13.706 5.214 27.325 17.204 41.731z"/><path d="m-62.9109 657.489c-7.1596 0-14.7362-2.891-25.1628-8.014l-.2085-.087c-20.0188-12.656-35.8678-43.177-52.6198-75.449-11.434-22.07-23.286-44.84-37.535-64.677-20.089-32.185-45.356-57.232-69.754-81.448-16.405-16.246-31.905-31.616-45.425-48.606l-.244-.35c-27.526-47.249-7.785-68.092 28.013-105.97 3.893-4.116 7.994-8.451 12.269-13.093 8.411-7.838 17.377-16.596 26.9-25.88 42.298-41.293 100.269-97.825 182.0484-143.7156 99.9561-48.212 177.1826-13.3557 209.4356 42.5626 32.322 58.284 19.775 128.434-16.544 245.614-39.795 118.494-112.4332 195.212-151.46332 236.418l-4.34443 4.598c-29.02065 27.149-41.46305 38.097-55.36515 38.097zm-23.4251-13.269c28.4646 13.925 33.2956 10.597 76.0098-29.251l4.24017-4.466c38.71733-40.899 110.80003-117.049 150.17703-234.185 35.729-115.209 48.206-184.046 17.065-240.184-31.21-54.1232-106.4204-87.7095-204.0479-40.6362-81.1881 45.5412-138.8821 101.8542-181.0401 142.9282-9.523 9.283-18.49 18.041-26.831 25.835-4.171 4.511-8.272 8.846-12.164 13.006-35.833 37.921-52.238 55.262-27.388 98.088 13.312 16.683 28.674 31.878 44.904 47.993 24.642 24.39 50.083 49.657 70.414 82.236 14.389 20.011 26.345 43.001 37.884 65.246 16.369 31.528 31.87 61.348 50.777 73.39z"/><path d="m-68.7396 624.385c-9.1406 0-17.6209-4.116-28.1865-11.122-17.6559-13.4-31.8359-41.119-46.8499-70.414-8.898-17.428-18.142-35.425-28.708-51.934-14.771-25.923-32.288-48.08-49.179-69.537-13.867-17.603-26.97-34.199-37.292-51.321l-.139-.262c-20.923-44.403.695-65.115 39.968-102.73l.452-.438 7.264-6.262c41.359-35.513 98.01-84.163 175.6184-119.413 91.6148-36.827 149.9346.701 172.0736 43.965 23.668 46.153 17.864 108.115-20.019 213.866-27.596 73.697-72.6388 139.95-133.8428 196.92-23.6684 20.231-38.0918 28.682-51.1598 28.682zm-186.5664-257.699c10.149 16.771 23.112 33.236 36.841 50.62 17.03 21.588 34.651 43.964 49.561 70.106 10.67 16.596 19.949 34.769 28.916 52.329 14.702 28.769 28.604 55.918 45.2862 68.573 24.0507 16.027 36.0412 15.721 74.5153-17.253 60.5437-56.4 105.0999-121.909 132.3485-194.686 37.153-103.737 43.061-164.122 20.331-208.437-22.973-44.884-83.447-75.186-166.8596-41.687-76.9834 34.987-133.3564 83.374-174.5064 118.756l-7.542 6.525c-39.551 37.877-57.659 55.218-38.891 95.154z"/><path d="m-72.0045 594.26c-10.218 0-19.8105-4.423-30.5155-13.093l-.069-.044c-16.127-13.925-29.125-40.111-42.888-67.786-6.36-12.83-12.964-26.054-20.123-38.666-9.558-18.479-20.158-35.557-30.411-52.021-12.582-20.231-24.503-39.367-32.288-57.933-13.589-39.192 6.291-59.685 40.629-88.892 35.381-27.588 90.0509-66.91 157.0591-90.119 63.9844-16.596 111.9119-3.284 135.0939 37.44 25.024 43.877 18.802 113.458-17.0651 190.921-37.5705 91.169-96.96716 144.636-114.2753 158.824-18.4203 14.362-32.2876 21.369-45.1471 21.369zm-28.0825-17.866c20.0193 16.158 35.7287 19.048 70.7967-8.32 17.0301-13.969 75.6622-66.735 112.7461-156.766 34.9642-75.536 41.2892-142.884 17.3432-184.834-22.1047-38.797-68.3987-51.277-130.4021-35.206-66.313 22.989-120.6009 62.005-155.6689 89.373-35.346 30.04-50.743 47.906-39.03 81.667 7.542 17.91 19.324 36.827 31.801 56.882 10.322 16.597 20.992 33.718 30.585 52.329 7.194 12.611 13.798 25.967 20.192 38.841 13.555 27.105 26.31 52.766 41.637 66.034z"/><path d="m-74.1619 566.757c-10.8437 0-20.8184-4.686-31.1751-14.057l-.278-.306c-39.656-50.577-86.541-166.399-95.543-189.082l-.139-.525c-7.02-32.492 8.828-51.584 40.49-75.449 29.82-21.107 76.9136-48.957 132.105-61.962 50.8122-10.071 88.8691 3.503 107.2199 38.228 20.3666 38.578 14.1454 97.212-17.03 160.882-27.4567 61.392-67.91183 105.575-96.6197 126.419-15.0143 10.597-27.5261 15.852-39.0301 15.852zm-28.3951-18.523c19.8453 17.822 37.5357 17.209 65.1661-2.277 28.18657-20.45 67.9119-63.889 94.9862-124.361 29.82-60.911 36.2149-118.757 17.169-154.839-17.3081-32.798-53.8011-45.541-102.7017-35.776-54.531 12.874-101.1026 40.461-130.6106 61.305-30.306 22.814-44.591 39.761-38.474 68.793 25.858 65.158 64.193 148.445 94.465 187.155z"/><path d="m-75.7486 541.406c-11.6083 0-21.6526-4.86-29.2644-14.275-30.445-37.177-62.142-115.604-71.491-162.765-1.529-10.903.66-21.544 6.43-31.703 17.794-31.309 70.5181-58.327 141.0712-72.252 39.7948-4.861 69.4757 8.583 83.6559 37.878 16.0569 33.192 10.2875 81.491-15.8137 132.462-33.95587 64.501-74.5847 105.663-108.6796 110.217-2.0158.307-3.9969.438-5.9084.438zm62.2466-276.31c-4.7962 0-9.7662.307-14.91.964-69.2324 13.662-120.879 39.804-137.944 69.931-5.074 8.933-6.985 18.085-5.699 27.237 9.175 46.198 40.316 123.354 70.24 159.874 7.8894 9.722 18.8025 13.969 31.523 12.261 32.7741-4.379 72.18658-44.621 105.3778-107.677 24.7458-48.344 30.6542-95.592 15.7442-126.42-11.4345-23.602-33.9906-36.17-64.332-36.17z"/><path d="m-74.8202 517.319c-10.7742 0-20.2624-4.379-27.6648-12.874-26.414-30.171-50.847-93.972-52.238-136.491v-.087c-.173-39.192 51.542-71.377 122.9298-76.456 30.41081-.92 52.967 11.866 63.5674 36.126 12.1643 27.806 7.1595 66.384-13.7284 105.882-25.82317 47.993-58.1456 79.171-86.5059 83.418-2.1895.307-4.3096.482-6.3601.482zm-75.3838-149.54c1.39 41.249 25.093 103.167 50.777 132.462 7.82 8.977 18.3161 12.743 30.4109 10.948 27.0744-4.073 58.2151-34.331 83.3084-80.967 19.9147-37.658 24.85-74.135 13.5198-100.014-9.7663-22.289-30.82798-34.112-59.4316-33.192-67.7032 4.86-118.7235 35.294-118.5845 70.763z"/><path d="m-74.044 494.507c-9.4187 0-17.8295-3.635-24.6068-10.773-23.8072-24.916-40.7332-75.361-37.0142-110.217 4.031-33.455 47.3713-57.452 98.531-54.693 22.4519 1.62 38.99542 13.268 46.64158 32.755 8.75832 22.332 4.76152 51.977-11.01741 81.272-18.62877 34.287-43.20077 57.101-65.72217 61.042-2.3286.438-4.5877.614-6.812.614zm28.8121-170.209c-45.3904 0-82.4741 21.15-85.9501 50.051-3.475 32.535 13.068 81.623 35.4159 105.05 7.3681 7.707 16.9953 10.772 27.9085 8.889 21.305-3.722 44.6953-25.66 62.62899-58.633 14.84049-27.544 18.73301-55.087 10.70458-75.581-6.88155-17.559-22.10437-28.068-42.81847-29.601-2.6414-.088-5.2828-.175-7.8894-.175z"/></g></svg>