<svg width="219" height="698" viewBox="0 0 219 698" fill="none" xmlns="http://www.w3.org/2000/svg">
<path d="M-56.1653 697.162C-61.3438 697.162 -67.5303 695.016 -75.7673 690.156C-97.6283 676.975 -120.045 637.39 -143.714 595.527C-156.747 572.538 -170.197 548.761 -183.717 529.274C-203.458 494.068 -236.927 469.809 -269.319 446.294C-292.988 429.128 -315.335 412.883 -332.643 392.827L-332.678 392.783C-345.677 377.194 -351.759 362.131 -351.272 346.761C-350.334 316.765 -324.372 290.054 -294.274 259.139L-291.389 256.161C-269.076 233.128 -241.063 202.3 -200.504 156.278L-197.063 152.512C-160.779 112.751 -115.597 63.2697 -57.0689 33.2741C60.1606 -36.2194 162.758 17.5975 195.15 75.9247C228.932 144.105 226.013 216.488 184.028 352.716C140.063 494.725 42.6786 604.504 2.84909 645.097C-13.4511 658.496 -23.6691 670.363 -31.1068 679.034C-40.5602 689.981 -46.7119 697.162 -56.1653 697.162ZM-329.585 388.623C-312.659 408.241 -290.52 424.312 -267.095 441.346C-234.321 465.123 -200.4 489.733 -180.242 525.727C-166.687 545.214 -153.167 569.123 -140.099 592.199C-116.744 633.449 -94.6741 672.421 -73.8904 684.989C-53.3501 697.031 -48.5191 691.426 -34.1652 674.786C-26.5886 665.984 -16.1967 653.898 0.207733 640.411C39.5507 600.257 136.24 491.309 179.823 350.571C221.216 216.313 224.24 145.243 191.396 78.99C159.943 22.4143 59.7435 -29.7824 -55.2616 38.3974C-113.199 68.1303 -158.068 117.262 -194.109 156.716L-197.515 160.482C-238.109 206.548 -266.157 237.419 -288.539 260.496L-291.424 263.474C-320.688 293.513 -345.92 319.48 -346.789 346.892C-347.206 360.598 -341.575 374.217 -329.585 388.623Z" fill="#CCCCCC"/>
<path d="M-62.9109 657.489C-70.0705 657.489 -77.6471 654.598 -88.0737 649.475L-88.2822 649.388C-108.301 636.732 -124.15 606.211 -140.902 573.939C-152.336 551.869 -164.188 529.099 -178.437 509.262C-198.526 477.077 -223.793 452.03 -248.191 427.814C-264.596 411.568 -280.096 396.198 -293.616 379.208L-293.86 378.858C-321.386 331.609 -301.645 310.766 -265.847 272.888C-261.954 268.772 -257.853 264.437 -253.578 259.795C-245.167 251.957 -236.201 243.199 -226.678 233.915C-184.38 192.622 -126.409 136.09 -44.6296 90.1994C55.3265 41.9874 132.553 76.8437 164.806 132.762C197.128 191.046 184.581 261.196 148.262 378.376C108.467 496.87 35.8288 573.588 -3.20132 614.794L-7.54575 619.392C-36.5664 646.541 -49.0088 657.489 -62.9109 657.489ZM-86.336 644.22C-57.8714 658.145 -53.0404 654.817 -10.3262 614.969L-6.08603 610.503C32.6313 569.604 104.714 493.454 144.091 376.318C179.82 261.109 192.297 192.272 161.156 136.134C129.946 82.0108 54.7356 48.4245 -42.8919 95.4978C-124.08 141.039 -181.774 197.352 -223.932 238.426C-233.455 247.709 -242.422 256.467 -250.763 264.261C-254.934 268.772 -259.035 273.107 -262.927 277.267C-298.76 315.188 -315.165 332.529 -290.315 375.355C-277.003 392.038 -261.641 407.233 -245.411 423.348C-220.769 447.738 -195.328 473.005 -174.997 505.584C-160.608 525.595 -148.652 548.585 -137.113 570.83C-120.744 602.358 -105.243 632.178 -86.336 644.22Z" fill="#CCCCCC"/>
<path d="M-68.7396 624.385C-77.8802 624.385 -86.3605 620.269 -96.9261 613.263C-114.582 599.863 -128.762 572.144 -143.776 542.849C-152.674 525.421 -161.918 507.424 -172.484 490.915C-187.255 464.992 -204.772 442.835 -221.663 421.378C-235.53 403.775 -248.633 387.179 -258.955 370.057L-259.094 369.795C-280.017 325.392 -258.399 304.68 -219.126 267.065L-218.674 266.627L-211.41 260.365C-170.051 224.852 -113.4 176.202 -35.7916 140.952C55.8232 104.125 114.143 141.653 136.282 184.917C159.95 231.07 154.146 293.032 116.263 398.783C88.667 472.48 43.6242 538.733 -17.5798 595.703C-41.2482 615.934 -55.6716 624.385 -68.7396 624.385ZM-255.306 366.686C-245.157 383.457 -232.194 399.922 -218.465 417.306C-201.435 438.894 -183.814 461.27 -168.904 487.412C-158.234 504.008 -148.955 522.181 -139.988 539.741C-125.286 568.51 -111.384 595.659 -94.7018 608.314C-70.6511 624.341 -58.6606 624.035 -20.1865 591.061C40.3572 534.661 84.9134 469.152 112.162 396.375C149.315 292.638 155.223 232.253 132.493 187.938C109.52 143.054 49.046 112.752 -34.3666 146.251C-111.35 181.238 -167.723 229.625 -208.873 265.007L-216.415 271.532C-255.966 309.409 -274.074 326.75 -255.306 366.686Z" fill="#CCCCCC"/>
<path d="M-72.0045 594.26C-82.2225 594.26 -91.815 589.837 -102.52 581.167L-102.589 581.123C-118.716 567.198 -131.714 541.012 -145.477 513.337C-151.837 500.507 -158.441 487.283 -165.6 474.671C-175.158 456.192 -185.758 439.114 -196.011 422.65C-208.593 402.419 -220.514 383.283 -228.299 364.717C-241.888 325.525 -222.008 305.032 -187.67 275.825C-152.289 248.237 -97.6191 208.915 -30.6109 185.706C33.3735 169.11 81.301 182.422 104.483 223.146C129.507 267.023 123.285 336.604 87.4179 414.067C49.8474 505.236 -9.54926 558.703 -26.8574 572.891C-45.2777 587.253 -59.145 594.26 -72.0045 594.26ZM-100.087 576.394C-80.0677 592.552 -64.3583 595.442 -29.2903 568.074C-12.2602 554.105 46.3719 501.339 83.4558 411.308C118.42 335.772 124.745 268.424 100.799 226.474C78.6943 187.677 32.4003 175.197 -29.6031 191.268C-95.9161 214.257 -150.204 253.273 -185.272 280.641C-220.618 310.681 -236.015 328.547 -224.302 362.308C-216.76 380.218 -204.978 399.135 -192.501 419.19C-182.179 435.787 -171.509 452.908 -161.916 471.519C-154.722 484.13 -148.118 497.486 -141.724 510.36C-128.169 537.465 -115.414 563.126 -100.087 576.394Z" fill="#CCCCCC"/>
<path d="M-74.1619 566.757C-85.0056 566.757 -94.9803 562.071 -105.337 552.7L-105.615 552.394C-145.271 501.817 -192.156 385.995 -201.158 363.312L-201.297 362.787C-208.317 330.295 -192.469 311.203 -160.807 287.338C-130.987 266.231 -83.8934 238.381 -28.702 225.376C22.1102 215.305 60.1671 228.879 78.5179 263.604C98.8845 302.182 92.6633 360.816 61.4879 424.486C34.0312 485.878 -6.42393 530.061 -35.1318 550.905C-50.1461 561.502 -62.6579 566.757 -74.1619 566.757ZM-102.557 548.234C-82.7117 566.056 -65.0213 565.443 -37.3909 545.957C-9.20433 525.507 30.521 482.068 57.5953 421.596C87.4153 360.685 93.8102 302.839 74.7643 266.757C57.4562 233.959 20.9632 221.216 -27.9374 230.981C-82.4684 243.855 -129.04 271.442 -158.548 292.286C-188.854 315.1 -203.139 332.047 -197.022 361.079C-171.164 426.237 -132.829 509.524 -102.557 548.234Z" fill="#CCCCCC"/>
<path d="M-75.7486 541.406C-87.3569 541.406 -97.4012 536.546 -105.013 527.131C-135.458 489.954 -167.155 411.527 -176.504 364.366C-178.033 353.463 -175.844 342.822 -170.074 332.663C-152.28 301.354 -99.5559 274.336 -29.0028 260.411C10.792 255.55 40.4729 268.994 54.6531 298.289C70.71 331.481 64.9406 379.78 38.8394 430.751C4.88353 495.252 -35.7453 536.414 -69.8402 540.968C-71.856 541.275 -73.8371 541.406 -75.7486 541.406ZM-13.502 265.096C-18.2982 265.096 -23.2682 265.403 -28.412 266.06C-97.6444 279.722 -149.291 305.864 -166.356 335.991C-171.43 344.924 -173.341 354.076 -172.055 363.228C-162.88 409.426 -131.739 486.582 -101.815 523.102C-93.9256 532.824 -83.0125 537.071 -70.292 535.363C-37.5179 530.984 1.89458 490.742 35.0858 427.686C59.8316 379.342 65.74 332.094 50.83 301.266C39.3955 277.664 16.8394 265.096 -13.502 265.096Z" fill="#CCCCCC"/>
<path d="M-74.8202 517.319C-85.5944 517.319 -95.0826 512.94 -102.485 504.445C-128.899 474.274 -153.332 410.473 -154.723 367.954V367.867C-154.896 328.675 -103.181 296.49 -31.7932 291.411C-1.38239 290.491 21.1738 303.277 31.7742 327.537C43.9385 355.343 38.9337 393.921 18.0458 433.419C-7.77737 481.412 -40.0998 512.59 -68.4601 516.837C-70.6496 517.144 -72.7697 517.319 -74.8202 517.319ZM-150.204 367.779C-148.814 409.028 -125.111 470.946 -99.427 500.241C-91.607 509.218 -81.1109 512.984 -69.0161 511.189C-41.9417 507.116 -10.801 476.858 14.2923 430.222C34.207 392.564 39.1423 356.087 27.8121 330.208C18.0458 307.919 -3.01588 296.096 -31.6195 297.016C-99.3227 301.876 -150.343 332.31 -150.204 367.779Z" fill="#CCCCCC"/>
<path d="M-74.044 494.507C-83.4627 494.507 -91.8735 490.872 -98.6508 483.734C-122.458 458.818 -139.384 408.373 -135.665 373.517C-131.634 340.062 -88.2937 316.065 -37.134 318.824C-14.6821 320.444 1.86142 332.092 9.50758 351.579C18.2659 373.911 14.2691 403.556 -1.50983 432.851C-20.1386 467.138 -44.7106 489.952 -67.232 493.893C-69.5606 494.331 -71.8197 494.507 -74.044 494.507ZM-45.2319 324.298C-90.6223 324.298 -127.706 345.448 -131.182 374.349C-134.657 406.884 -118.114 455.972 -95.7661 479.399C-88.398 487.106 -78.7708 490.171 -67.8576 488.288C-46.5526 484.566 -23.1623 462.628 -5.22861 429.655C9.61188 402.111 13.5044 374.568 5.47597 354.074C-1.40558 336.515 -16.6284 326.006 -37.3425 324.473C-39.9839 324.385 -42.6253 324.298 -45.2319 324.298Z" fill="#CCCCCC"/>
</svg>
