<?xml version="1.0" encoding="utf-8"?>
<!-- Generator: Adobe Illustrator 27.9.0, SVG Export Plug-In . SVG Version: 6.00 Build 0)  -->
<svg version="1.1" id="Warstwa_1" xmlns="http://www.w3.org/2000/svg" xmlns:xlink="http://www.w3.org/1999/xlink" x="0px" y="0px"
	 viewBox="0 0 721.55 661" style="enable-background:new 0 0 721.55 661;" xml:space="preserve">
<style type="text/css">
	.st0{fill:#EAF5FB;}
	.st1{fill:#D7EBF9;}
	.st2{fill:#ADD6F1;}
	.st3{fill:#85C1E9;}
	.st4{fill:#5FADE0;}
	.st5{fill:#3A97D3;}
	.st6{fill:#2E86C2;}
	.st7{fill:#2875A6;}
	.st8{fill:#23618C;}
	.st9{fill:#111827;}
</style>
<g>
	<g>
		<polygon points="-44.47,52.19 -109.51,164.84 -147.66,98.76 -172.12,112.88 -125.82,193.09 -93.19,193.09 -20,66.32 		"/>
	</g>
</g>
<rect x="-738.69" class="st0" width="61.81" height="60.66"/>
<rect x="-739.26" y="66.96" class="st1" width="61.81" height="60.66"/>
<rect x="-739.26" y="134.49" class="st2" width="61.81" height="60.66"/>
<rect x="-739.26" y="200.88" class="st3" width="61.81" height="60.66"/>
<rect x="-739.26" y="267.26" class="st4" width="61.81" height="60.66"/>
<rect x="-741.55" y="332.5" class="st5" width="61.81" height="60.66"/>
<rect x="-741.55" y="400.04" class="st6" width="61.81" height="60.66"/>
<rect x="-741.55" y="466.42" class="st7" width="61.81" height="60.66"/>
<rect x="-740.41" y="533.95" class="st8" width="61.81" height="60.66"/>
<rect x="-740.41" y="600.34" class="st9" width="61.81" height="60.66"/>
<polygon class="st7" points="380.96,590.2 231.09,591.34 108.04,421.93 204.99,350.37 "/>
<polygon class="st3" points="231.09,591.34 380.96,590.2 686.04,177.22 589.1,105.67 "/>
<circle class="st7" cx="113.25" cy="324.21" r="61.66"/>
<polygon class="st4" points="463.76,222.92 492.04,222.71 549.61,144.78 531.32,131.28 "/>
<polygon class="st5" points="620.84,337.64 649.12,337.42 706.69,259.5 688.39,245.99 "/>
<polygon class="st4" points="594.45,317.38 622.73,317.16 680.3,239.24 662,225.73 "/>
<polygon class="st5" points="438.67,204.03 466.95,203.82 524.52,125.89 506.23,112.39 "/>
</svg>
