<svg fill="none" height="400" viewBox="0 0 759 400" width="759" xmlns="http://www.w3.org/2000/svg" xmlns:xlink="http://www.w3.org/1999/xlink"><filter id="a" color-interpolation-filters="sRGB" filterUnits="userSpaceOnUse" height="159.265" width="159.265" x="311.245" y="240.671"><feFlood flood-opacity="0" result="BackgroundImageFix"/><feColorMatrix in="SourceAlpha" result="hardAlpha" type="matrix" values="0 0 0 0 0 0 0 0 0 0 0 0 0 0 0 0 0 0 127 0"/><feMorphology in="SourceAlpha" operator="erode" radius="11" result="effect1_dropShadow_5_36722"/><feOffset dy="4"/><feGaussianBlur stdDeviation="25"/><feComposite in2="hardAlpha" operator="out"/><feColorMatrix type="matrix" values="0 0 0 0 0 0 0 0 0 0 0 0 0 0 0 0 0 0 0.2 0"/><feBlend in2="BackgroundImageFix" mode="normal" result="effect1_dropShadow_5_36722"/><feBlend in="SourceGraphic" in2="effect1_dropShadow_5_36722" mode="normal" result="shape"/></filter><filter id="b" color-interpolation-filters="sRGB" filterUnits="userSpaceOnUse" height="159.265" width="159.265" x="0" y="240.671"><feFlood flood-opacity="0" result="BackgroundImageFix"/><feColorMatrix in="SourceAlpha" result="hardAlpha" type="matrix" values="0 0 0 0 0 0 0 0 0 0 0 0 0 0 0 0 0 0 127 0"/><feMorphology in="SourceAlpha" operator="erode" radius="11" result="effect1_dropShadow_5_36722"/><feOffset dy="4"/><feGaussianBlur stdDeviation="25"/><feComposite in2="hardAlpha" operator="out"/><feColorMatrix type="matrix" values="0 0 0 0 0 0 0 0 0 0 0 0 0 0 0 0 0 0 0.2 0"/><feBlend in2="BackgroundImageFix" mode="normal" result="effect1_dropShadow_5_36722"/><feBlend in="SourceGraphic" in2="effect1_dropShadow_5_36722" mode="normal" result="shape"/></filter><filter id="c" color-interpolation-filters="sRGB" filterUnits="userSpaceOnUse" height="159.265" width="159.265" x="599.735" y="240.671"><feFlood flood-opacity="0" result="BackgroundImageFix"/><feColorMatrix in="SourceAlpha" result="hardAlpha" type="matrix" values="0 0 0 0 0 0 0 0 0 0 0 0 0 0 0 0 0 0 127 0"/><feMorphology in="SourceAlpha" operator="erode" radius="11" result="effect1_dropShadow_5_36722"/><feOffset dy="4"/><feGaussianBlur stdDeviation="25"/><feComposite in2="hardAlpha" operator="out"/><feColorMatrix type="matrix" values="0 0 0 0 0 0 0 0 0 0 0 0 0 0 0 0 0 0 0.2 0"/><feBlend in2="BackgroundImageFix" mode="normal" result="effect1_dropShadow_5_36722"/><feBlend in="SourceGraphic" in2="effect1_dropShadow_5_36722" mode="normal" result="shape"/></filter><filter id="d" color-interpolation-filters="sRGB" filterUnits="userSpaceOnUse" height="159.265" width="159.265" x="499.779" y=".12709"><feFlood flood-opacity="0" result="BackgroundImageFix"/><feColorMatrix in="SourceAlpha" result="hardAlpha" type="matrix" values="0 0 0 0 0 0 0 0 0 0 0 0 0 0 0 0 0 0 127 0"/><feMorphology in="SourceAlpha" operator="erode" radius="11" result="effect1_dropShadow_5_36722"/><feOffset dy="4"/><feGaussianBlur stdDeviation="25"/><feComposite in2="hardAlpha" operator="out"/><feColorMatrix type="matrix" values="0 0 0 0 0 0 0 0 0 0 0 0 0 0 0 0 0 0 0.2 0"/><feBlend in2="BackgroundImageFix" mode="normal" result="effect1_dropShadow_5_36722"/><feBlend in="SourceGraphic" in2="effect1_dropShadow_5_36722" mode="normal" result="shape"/></filter><filter id="e" color-interpolation-filters="sRGB" filterUnits="userSpaceOnUse" height="159.265" width="159.265" x="119.459" y=".12709"><feFlood flood-opacity="0" result="BackgroundImageFix"/><feColorMatrix in="SourceAlpha" result="hardAlpha" type="matrix" values="0 0 0 0 0 0 0 0 0 0 0 0 0 0 0 0 0 0 127 0"/><feMorphology in="SourceAlpha" operator="erode" radius="11" result="effect1_dropShadow_5_36722"/><feOffset dy="4"/><feGaussianBlur stdDeviation="25"/><feComposite in2="hardAlpha" operator="out"/><feColorMatrix type="matrix" values="0 0 0 0 0 0 0 0 0 0 0 0 0 0 0 0 0 0 0.2 0"/><feBlend in2="BackgroundImageFix" mode="normal" result="effect1_dropShadow_5_36722"/><feBlend in="SourceGraphic" in2="effect1_dropShadow_5_36722" mode="normal" result="shape"/></filter><clipPath id="f"><path d="m654.988 291.924h48.7589v48.7589h-48.7589z"/></clipPath><clipPath id="g"><path d="m555.032 51.3801h48.7589v48.7589h-48.7589z"/></clipPath><clipPath id="h"><path d="m173.087 51.3801h48.7589v48.7589h-48.7589z"/></clipPath><clipPath id="i"><path d="m364 296.433h51v39h-51z"/></clipPath><path d="m679.368 316.304c0-165.613-134.256-299.8678-299.868-299.8678s-299.8674 134.2548-299.8674 299.8678" stroke="#a7cefc" stroke-dasharray="15 15" stroke-width="2"/><path d="m78.0071 314.804h601.3599" stroke="#a7cefc" stroke-dasharray="15 15" stroke-width="3"/><path d="m200.31 74.885 125.961 175.532" stroke="#a7cefc" stroke-dasharray="15 15" stroke-width="3"/><path d="m580.97 93.8506-124.718 157.5594" stroke="#a7cefc" stroke-dasharray="15 15" stroke-width="3"/><rect height="133.525" rx="8.5" stroke="#a7cefc" stroke-dasharray="15 15" stroke-width="3" width="133.525" x="324.115" y="249.541"/><g filter="url(#a)"><rect fill="#fff" height="81.2649" rx="10" width="81.2649" x="350.245" y="275.671"/></g><g filter="url(#b)"><rect fill="#fff" height="81.2649" rx="10" width="81.2649" x="39" y="275.671"/></g><g fill="#ffe492"><path d="m77.8097 319.433c-.3901 0-.7802-.149-1.0773-.447-.595-.595-.595-1.559 0-2.154l9.8744-9.875c.5943-.595 1.5603-.595 2.1546 0 .595.595.595 1.56 0 2.155l-9.8745 9.874c-.2971.298-.6872.447-1.0772.447z"/><path d="m77.8091 319.433c-.39 0-.7794-.149-1.0772-.447l-4.978-4.977c-.595-.595-.595-1.559 0-2.154.5942-.595 1.5595-.595 2.1545 0l4.978 4.977c.595.595.595 1.559 0 2.154-.2971.298-.6872.447-1.0773.447z"/><path d="m79.631 335.299c-.1585 0-.3192-.025-.4777-.077-9.7396-3.213-16.2832-12.262-16.2832-22.519 0-.841.6826-1.524 1.5237-1.524s1.5237.683 1.5237 1.524c0 8.938 5.7026 16.825 14.1904 19.625.7992.263 1.2335 1.125.9699 1.924-.2111.641-.8068 1.047-1.4468 1.047z"/><path d="m64.3938 314.227c-.8411 0-1.5237-.683-1.5237-1.524v-10.779c0-.841.6826-1.524 1.5237-1.524s1.5238.683 1.5238 1.524v10.779c0 .842-.6827 1.524-1.5238 1.524z"/><path d="m64.3945 303.448c-.7482 0-1.4011-.552-1.5077-1.314-.1158-.834.4655-1.603 1.2997-1.719 5.1471-.715 10.1152-2.254 14.7671-4.572.7535-.375 1.6685-.069 2.0433.684.3756.754.0686 1.668-.6841 2.043-4.9483 2.466-10.2326 4.102-15.7073 4.863-.0708.01-.1417.015-.211.015z"/><path d="m79.6325 335.299c-.6392 0-1.2357-.406-1.4468-1.046-.2636-.8.1707-1.661.9699-1.925 8.4878-2.799 14.1904-10.686 14.1904-19.625 0-.841.6826-1.523 1.5237-1.523s1.5237.682 1.5237 1.523c0 10.257-6.5436 19.307-16.284 22.519-.1584.053-.3184.077-.4769.077z"/><path d="m94.8704 314.227c-.8411 0-1.5237-.683-1.5237-1.524v-10.779c0-.841.6826-1.524 1.5237-1.524s1.5237.683 1.5237 1.524v10.779c0 .842-.6826 1.524-1.5237 1.524z"/><path d="m94.8719 303.448c-.0701 0-.141-.005-.2118-.015-5.4747-.761-10.759-2.397-15.7072-4.863-.7527-.375-1.0598-1.289-.6842-2.043.3749-.753 1.2898-1.059 2.0433-.684 4.6519 2.318 9.62 3.857 14.7671 4.572.8335.116 1.4155.886 1.2997 1.719-.1051.762-.758 1.314-1.5069 1.314z"/></g><g filter="url(#c)"><rect fill="#fff" height="81.2649" rx="10" width="81.2649" x="638.735" y="275.671"/></g><g clip-path="url(#f)" fill="#4f9cf9"><path d="m693.08 309.828h-3.432v-7.831c0-5.554-4.614-10.073-10.285-10.073s-10.285 4.519-10.285 10.073v7.831h-3.425c-3.151 0-5.714 2.563-5.714 5.714v19.427c0 3.151 2.563 5.714 5.714 5.714h27.427c3.151 0 5.714-2.563 5.714-5.714v-19.427c0-3.151-2.563-5.714-5.714-5.714zm-20.193-7.831c0-3.454 2.905-6.263 6.476-6.263s6.476 2.809 6.476 6.263v7.831h-12.952zm22.098 32.972c0 1.05-.855 1.905-1.905 1.905h-27.427c-1.05 0-1.904-.855-1.904-1.905v-19.427c0-1.05.854-1.905 1.904-1.905h27.427c1.05 0 1.905.855 1.905 1.905z"/><path d="m679.367 319.161c-1.946 0-3.523 1.577-3.523 3.523 0 1.243.643 2.334 1.615 2.962v4.181c0 1.051.853 1.904 1.905 1.904 1.051 0 1.904-.853 1.904-1.904v-4.177c.976-.626 1.623-1.72 1.623-2.966 0-1.946-1.578-3.523-3.524-3.523z"/></g><g filter="url(#d)"><rect fill="#fff" height="81.2649" rx="10" width="81.2649" x="538.779" y="35.1271"/></g><g clip-path="url(#g)" fill="#ffe492"><path d="m571.708 51.3801c-9.827 0-16.676 3.4126-16.676 6.4754 0 3.0629 6.849 6.4755 16.676 6.4755s16.676-3.4127 16.676-6.4755c0-3.0627-6.848-6.4754-16.676-6.4754z"/><path d="m555.032 87.607v6.0565c0 3.0628 6.849 6.4755 16.676 6.4755 4.405 0 8.562-.6937 11.706-1.9535 2.05-.821 3.567-1.8393 4.356-2.8975-1.487-1.1636-3.204-2.8366-4.7-5.1448-3.293 1.0543-7.185 1.6076-11.362 1.6076-5.255 0-10.171-.9053-13.842-2.5493-1.071-.4794-2.018-1.0138-2.834-1.5945z"/><path d="m555.032 75.6984v5.9739c0 3.0627 6.849 6.4754 16.676 6.4754 3.485 0 6.829-.4371 9.631-1.2458-1.016-2.3488-1.673-4.9415-1.962-7.7473-2.397.4508-5.008.686-7.669.686-5.289 0-10.228-.9156-13.907-2.5781-1.044-.4719-1.97-.996-2.769-1.5641z"/><path d="m555.032 63.7847v5.9779c0 3.0628 6.849 6.4755 16.676 6.4755 2.629 0 5.191-.2477 7.497-.721.004-.5661.173-2.0394 1.537-2.4139 2.149-.5901 3.653-2.0066 3.786-3.9496.055-.8 1.056-1.9209 1.802-1.9098h2.054v-3.4591c-.799.5681-1.724 1.0922-2.768 1.5647-3.684 1.6666-8.623 2.5845-13.908 2.5845-5.284 0-10.223-.9179-13.907-2.5845-1.045-.4725-1.97-.9966-2.769-1.5647z"/><path d="m598.683 70.8469h-10.748c-.601 2.4987-2.523 4.5485-5.122 5.4423.203 11.994 7.097 16.5675 10.136 18.0014.174.0819.38.0731.551-.0233 3.052-1.7194 9.97-6.8376 10.292-17.9822-2.593-.8959-4.509-2.9433-5.109-5.4382zm-6.018 15.6192c-.73.7503-1.985.7091-2.664-.0873l-3.425-4.0189 2.743-2.3366 2.141 2.5125 5.974-6.1439 2.584 2.5112z"/></g><g filter="url(#e)"><rect fill="#fff" height="81.2649" rx="10" width="81.2649" x="158.459" y="35.1271"/></g><g clip-path="url(#h)" fill="#4f9cf9"><path d="m217.25 55.9758c-6.127-6.1275-16.097-6.1274-22.225 0-4.185 4.1851-5.638 10.3542-3.827 15.9498l-17.692 17.6927c-.268.2678-.419.6312-.419 1.0102v8.082c0 .7891.64 1.4285 1.429 1.4285h8.082c.379 0 .742-.1504 1.01-.4184l2.021-2.0208c.309-.3088.459-.7416.409-1.1753l-.252-2.1697 3.007-.2835c.683-.0644 1.224-.6052 1.289-1.2882l.283-3.0082 2.17.2522c.405.0473.811-.0811 1.115-.3522.305-.271.479-.6593.479-1.067v-2.6606h2.612c.376 0 .737-.1482 1.005-.4126l3.549-3.5086c5.597 1.8143 11.769.3614 15.956-3.8251 6.127-6.1274 6.127-16.0977-.001-22.2252zm-2.02 20.2049c-3.606 3.606-9.015 4.7315-13.78 2.8678-.526-.2056-1.124-.0824-1.525.3145l-3.771 3.727h-3.454c-.789 0-1.428.6397-1.428 1.4287v2.4849l-2.027-.2356c-.382-.0442-.765.067-1.064.3087-.299.2418-.487.5937-.523.9763l-.31 3.2845-3.284.3095c-.383.0361-.735.2247-.977.5235-.242.2986-.353.6822-.309 1.0639l.342 2.9336-1.114 1.1139h-6.062v-6.0615l17.913-17.9129c.402-.4013.527-1.0021.321-1.5306-1.864-4.7653-.738-10.1743 2.868-13.7804 5.013-5.0135 13.171-5.0135 18.184 0 5.013 5.0133 5.013 13.1708 0 18.1842z"/><path d="m213.209 60.0168c-1.672-1.6713-4.391-1.6712-6.062 0-1.671 1.6711-1.671 4.3903 0 6.0614s4.39 1.6713 6.062 0c1.671-1.6711 1.671-4.3903 0-6.0614zm-2.021 4.041c-.557.557-1.463.5571-2.02 0s-.557-1.4634 0-2.0205c.558-.5584 1.462-.5584 2.02 0 .559.5585.558 1.462 0 2.0205z"/></g><circle cx="381.938" cy="16.4362" fill="#a7cefc" r="13.0024"/><circle cx="283.607" cy="193.594" fill="#a7cefc" r="13.0024"/><circle cx="562.346" cy="316.304" fill="#a7cefc" r="13.0024"/><g clip-path="url(#i)" fill="#5986ef"><path d="m364 299.614v9.082c0 2.766 3.454 4.241 5.565 2.305l10.076-9.082c2.207-1.982.767-5.486-2.255-5.486h-10.076c-1.823 0-3.31 1.429-3.31 3.181z"/><path d="m411.69 296.433h-10.076c-2.974 0-4.462 3.504-2.255 5.486l10.076 9.082c2.111 1.89 5.565.461 5.565-2.305v-9.082c0-1.752-1.487-3.181-3.31-3.181z"/><path d="m391.779 318.607 17.656 15.95c2.111 1.89 5.565.461 5.565-2.305v-9.173c0-.876-.384-1.706-1.056-2.305l-22.165-20.053c-1.295-1.153-3.263-1.153-4.558 0l-22.165 20.053c-.672.599-1.056 1.429-1.056 2.305v9.173c0 2.766 3.454 4.242 5.565 2.305l17.656-15.95c1.295-1.152 3.263-1.152 4.558 0z"/></g></svg>