<svg width="759" height="400" viewBox="0 0 759 400" fill="none" xmlns="http://www.w3.org/2000/svg">
<path d="M679.368 316.304C679.368 150.691 545.112 16.4362 379.5 16.4362C213.888 16.4362 79.6326 150.691 79.6326 316.304" stroke="#A7CEFC" stroke-width="2" stroke-dasharray="15 15"></path>
<line x1="78.0071" y1="314.804" x2="679.367" y2="314.804" stroke="#A7CEFC" stroke-width="3" stroke-dasharray="15 15"></line>
<line x1="200.31" y1="74.885" x2="326.271" y2="250.417" stroke="#A7CEFC" stroke-width="3" stroke-dasharray="15 15"></line>
<line x1="580.97" y1="93.8506" x2="456.252" y2="251.41" stroke="#A7CEFC" stroke-width="3" stroke-dasharray="15 15"></line>
<rect x="324.115" y="249.541" width="133.525" height="133.525" rx="8.5" stroke="#A7CEFC" stroke-width="3" stroke-dasharray="15 15"></rect>
<g filter="url('#filter0_d_5_36722')">
<rect x="350.245" y="275.671" width="81.2649" height="81.2649" rx="10" fill="white"></rect>
</g>
<g filter="url('#filter1_d_5_36722')">
<rect x="39" y="275.671" width="81.2649" height="81.2649" rx="10" fill="white"></rect>
</g>
<path d="M77.8097 319.433C77.4196 319.433 77.0295 319.284 76.7324 318.986C76.1374 318.391 76.1374 317.427 76.7324 316.832L86.6068 306.957C87.2011 306.362 88.1671 306.362 88.7614 306.957C89.3564 307.552 89.3564 308.517 88.7614 309.112L78.8869 318.986C78.5898 319.284 78.1997 319.433 77.8097 319.433Z" fill="#FFE492"></path>
<path d="M77.8091 319.433C77.4191 319.433 77.0297 319.284 76.7319 318.986L71.7539 314.009C71.1589 313.414 71.1589 312.45 71.7539 311.855C72.3481 311.26 73.3134 311.26 73.9084 311.855L78.8864 316.832C79.4814 317.427 79.4814 318.391 78.8864 318.986C78.5893 319.284 78.1992 319.433 77.8091 319.433Z" fill="#FFE492"></path>
<path d="M79.631 335.299C79.4725 335.299 79.3118 335.274 79.1533 335.222C69.4137 332.009 62.8701 322.96 62.8701 312.703C62.8701 311.862 63.5527 311.179 64.3938 311.179C65.2349 311.179 65.9175 311.862 65.9175 312.703C65.9175 321.641 71.6201 329.528 80.1079 332.328C80.9071 332.591 81.3414 333.453 81.0778 334.252C80.8667 334.893 80.271 335.299 79.631 335.299Z" fill="#FFE492"></path>
<path d="M64.3938 314.227C63.5527 314.227 62.8701 313.544 62.8701 312.703V301.924C62.8701 301.083 63.5527 300.4 64.3938 300.4C65.2349 300.4 65.9176 301.083 65.9176 301.924V312.703C65.9176 313.545 65.2349 314.227 64.3938 314.227Z" fill="#FFE492"></path>
<path d="M64.3945 303.448C63.6463 303.448 62.9934 302.896 62.8868 302.134C62.771 301.3 63.3523 300.531 64.1865 300.415C69.3336 299.7 74.3017 298.161 78.9536 295.843C79.7071 295.468 80.6221 295.774 80.9969 296.527C81.3725 297.281 81.0655 298.195 80.3128 298.57C75.3645 301.036 70.0802 302.672 64.6055 303.433C64.5347 303.443 64.4638 303.448 64.3945 303.448Z" fill="#FFE492"></path>
<path d="M79.6325 335.299C78.9933 335.299 78.3968 334.893 78.1857 334.253C77.9221 333.453 78.3564 332.592 79.1556 332.328C87.6434 329.529 93.346 321.642 93.346 312.703C93.346 311.862 94.0286 311.18 94.8697 311.18C95.7108 311.18 96.3934 311.862 96.3934 312.703C96.3934 322.96 89.8498 332.01 80.1094 335.222C79.951 335.275 79.791 335.299 79.6325 335.299Z" fill="#FFE492"></path>
<path d="M94.8704 314.227C94.0293 314.227 93.3467 313.544 93.3467 312.703V301.924C93.3467 301.083 94.0293 300.4 94.8704 300.4C95.7115 300.4 96.3941 301.083 96.3941 301.924V312.703C96.3941 313.545 95.7115 314.227 94.8704 314.227Z" fill="#FFE492"></path>
<path d="M94.8719 303.448C94.8018 303.448 94.7309 303.443 94.6601 303.433C89.1854 302.672 83.9011 301.036 78.9529 298.57C78.2002 298.195 77.8931 297.281 78.2687 296.527C78.6436 295.774 79.5585 295.468 80.312 295.843C84.9639 298.161 89.932 299.7 95.0791 300.415C95.9126 300.531 96.4946 301.301 96.3788 302.134C96.2737 302.896 95.6208 303.448 94.8719 303.448Z" fill="#FFE492"></path>
<g filter="url('#filter2_d_5_36722')">
<rect x="638.735" y="275.671" width="81.2649" height="81.2649" rx="10" fill="white"></rect>
</g>
<g clip-path="url('#clip0_5_36722')">
<path d="M693.08 309.828H689.648V301.997C689.648 296.443 685.034 291.924 679.363 291.924C673.692 291.924 669.078 296.443 669.078 301.997V309.828H665.653C662.502 309.828 659.939 312.391 659.939 315.542V334.969C659.939 338.12 662.502 340.683 665.653 340.683H693.08C696.231 340.683 698.794 338.12 698.794 334.969V315.542C698.794 312.391 696.231 309.828 693.08 309.828ZM672.887 301.997C672.887 298.543 675.792 295.734 679.363 295.734C682.934 295.734 685.839 298.543 685.839 301.997V309.828H672.887V301.997ZM694.985 334.969C694.985 336.019 694.13 336.874 693.08 336.874H665.653C664.603 336.874 663.749 336.019 663.749 334.969V315.542C663.749 314.492 664.603 313.637 665.653 313.637H693.08C694.13 313.637 694.985 314.492 694.985 315.542V334.969Z" fill="#4F9CF9"></path>
<path d="M679.367 319.161C677.421 319.161 675.844 320.738 675.844 322.684C675.844 323.927 676.487 325.018 677.459 325.646V329.827C677.459 330.878 678.312 331.731 679.364 331.731C680.415 331.731 681.268 330.878 681.268 329.827V325.65C682.244 325.024 682.891 323.93 682.891 322.684C682.891 320.738 681.313 319.161 679.367 319.161Z" fill="#4F9CF9"></path>
</g>
<g filter="url('#filter3_d_5_36722')">
<rect x="538.779" y="35.1271" width="81.2649" height="81.2649" rx="10" fill="white"></rect>
</g>
<g clip-path="url('#clip1_5_36722')">
<path d="M571.708 51.3801C561.881 51.3801 555.032 54.7927 555.032 57.8555C555.032 60.9184 561.881 64.331 571.708 64.331C581.535 64.331 588.384 60.9183 588.384 57.8555C588.384 54.7928 581.536 51.3801 571.708 51.3801Z" fill="#FFE492"></path>
<path d="M555.032 87.607V93.6635C555.032 96.7263 561.881 100.139 571.708 100.139C576.113 100.139 580.27 99.4453 583.414 98.1855C585.464 97.3645 586.981 96.3462 587.77 95.288C586.283 94.1244 584.566 92.4514 583.07 90.1432C579.777 91.1975 575.885 91.7508 571.708 91.7508C566.453 91.7508 561.537 90.8455 557.866 89.2015C556.795 88.7221 555.848 88.1877 555.032 87.607V87.607Z" fill="#FFE492"></path>
<path d="M555.032 75.6984L555.032 81.6723C555.032 84.735 561.881 88.1477 571.708 88.1477C575.193 88.1477 578.537 87.7106 581.339 86.9019C580.323 84.5531 579.666 81.9604 579.377 79.1546C576.98 79.6054 574.369 79.8406 571.708 79.8406C566.419 79.8406 561.48 78.925 557.801 77.2625C556.757 76.7906 555.831 76.2665 555.032 75.6984Z" fill="#FFE492"></path>
<path d="M555.032 63.7847V69.7626C555.032 72.8254 561.881 76.2381 571.708 76.2381C574.337 76.2381 576.899 75.9904 579.205 75.5171C579.209 74.951 579.378 73.4777 580.742 73.1032C582.891 72.5131 584.395 71.0966 584.528 69.1536C584.583 68.3536 585.584 67.2327 586.33 67.2438H588.384V63.7847C587.585 64.3528 586.66 64.8769 585.616 65.3494C581.932 67.016 576.993 67.9339 571.708 67.9339C566.424 67.9339 561.485 67.016 557.801 65.3494C556.756 64.8769 555.831 64.3528 555.032 63.7847V63.7847Z" fill="#FFE492"></path>
<path d="M598.683 70.8469H587.935C587.334 73.3456 585.412 75.3954 582.813 76.2892C583.016 88.2832 589.91 92.8567 592.949 94.2906C593.123 94.3725 593.329 94.3637 593.5 94.2673C596.552 92.5479 603.47 87.4297 603.792 76.2851C601.199 75.3892 599.283 73.3418 598.683 70.8469ZM592.665 86.4661C591.935 87.2164 590.68 87.1752 590.001 86.3788L586.576 82.3599L589.319 80.0233L591.46 82.5358L597.434 76.3919L600.018 78.9031L592.665 86.4661Z" fill="#FFE492"></path>
</g>
<g filter="url('#filter4_d_5_36722')">
<rect x="158.459" y="35.1271" width="81.2649" height="81.2649" rx="10" fill="white"></rect>
</g>
<g clip-path="url('#clip2_5_36722')">
<path d="M217.25 55.9758C211.123 49.8483 201.153 49.8484 195.025 55.9758C190.84 60.1609 189.387 66.33 191.198 71.9256L173.506 89.6183C173.238 89.8861 173.087 90.2495 173.087 90.6285V98.7105C173.087 99.4996 173.727 100.139 174.516 100.139H182.598C182.977 100.139 183.34 99.9886 183.608 99.7206L185.629 97.6998C185.938 97.391 186.088 96.9582 186.038 96.5245L185.786 94.3548L188.793 94.0713C189.476 94.0069 190.017 93.4661 190.082 92.7831L190.365 89.7749L192.535 90.0271C192.94 90.0744 193.346 89.946 193.65 89.6749C193.955 89.4039 194.129 89.0156 194.129 88.6079V85.9473H196.741C197.117 85.9473 197.478 85.7991 197.746 85.5347L201.295 82.0261C206.892 83.8404 213.064 82.3875 217.251 78.201C223.378 72.0736 223.378 62.1033 217.25 55.9758ZM215.23 76.1807C211.624 79.7867 206.215 80.9122 201.45 79.0485C200.924 78.8429 200.326 78.9661 199.925 79.363L196.154 83.09H192.7C191.911 83.09 191.272 83.7297 191.272 84.5187V87.0036L189.245 86.768C188.863 86.7238 188.48 86.835 188.181 87.0767C187.882 87.3185 187.694 87.6704 187.658 88.053L187.348 91.3375L184.064 91.647C183.681 91.6831 183.329 91.8717 183.087 92.1705C182.845 92.4691 182.734 92.8527 182.778 93.2344L183.12 96.168L182.006 97.2819H175.944V91.2204L193.857 73.3075C194.259 72.9062 194.384 72.3054 194.178 71.7769C192.314 67.0116 193.44 61.6026 197.046 57.9965C202.059 52.983 210.217 52.983 215.23 57.9965C220.243 63.0098 220.243 71.1673 215.23 76.1807Z" fill="#4F9CF9"></path>
<path d="M213.209 60.0168C211.537 58.3455 208.818 58.3456 207.147 60.0168C205.476 61.6879 205.476 64.4071 207.147 66.0782C208.818 67.7493 211.537 67.7495 213.209 66.0782C214.88 64.4071 214.88 61.6879 213.209 60.0168ZM211.188 64.0578C210.631 64.6148 209.725 64.6149 209.168 64.0578C208.611 63.5007 208.611 62.5944 209.168 62.0373C209.726 61.4789 210.63 61.4789 211.188 62.0373C211.747 62.5958 211.746 63.4993 211.188 64.0578Z" fill="#4F9CF9"></path>
</g>
<circle cx="381.938" cy="16.4362" r="13.0024" fill="#A7CEFC"></circle>
<circle cx="283.607" cy="193.594" r="13.0024" fill="#A7CEFC"></circle>
<circle cx="562.346" cy="316.304" r="13.0024" fill="#A7CEFC"></circle>
<g clip-path="url('#clip3_5_36722')">
<path d="M364 299.614V308.696C364 311.462 367.454 312.937 369.565 311.001L379.641 301.919C381.848 299.937 380.408 296.433 377.386 296.433H367.31C365.487 296.433 364 297.862 364 299.614Z" fill="#5986EF"></path>
<path d="M411.69 296.433H401.614C398.64 296.433 397.152 299.937 399.359 301.919L409.435 311.001C411.546 312.891 415 311.462 415 308.696V299.614C415 297.862 413.513 296.433 411.69 296.433Z" fill="#5986EF"></path>
<path d="M391.779 318.607L409.435 334.557C411.546 336.447 415 335.018 415 332.252V323.079C415 322.203 414.616 321.373 413.944 320.774L391.779 300.721C390.484 299.568 388.516 299.568 387.221 300.721L365.056 320.774C364.384 321.373 364 322.203 364 323.079V332.252C364 335.018 367.454 336.494 369.565 334.557L387.221 318.607C388.516 317.455 390.484 317.455 391.779 318.607Z" fill="#5986EF"></path>
</g>
<defs>
<filter id="filter0_d_5_36722" x="311.245" y="240.671" width="159.265" height="159.265" filterUnits="userSpaceOnUse" color-interpolation-filters="sRGB">
<feFlood flood-opacity="0" result="BackgroundImageFix"></feFlood>
<feColorMatrix in="SourceAlpha" type="matrix" values="0 0 0 0 0 0 0 0 0 0 0 0 0 0 0 0 0 0 127 0" result="hardAlpha"></feColorMatrix>
<feMorphology radius="11" operator="erode" in="SourceAlpha" result="effect1_dropShadow_5_36722"></feMorphology>
<feOffset dy="4"></feOffset>
<feGaussianBlur stdDeviation="25"></feGaussianBlur>
<feComposite in2="hardAlpha" operator="out"></feComposite>
<feColorMatrix type="matrix" values="0 0 0 0 0 0 0 0 0 0 0 0 0 0 0 0 0 0 0.2 0"></feColorMatrix>
<feBlend mode="normal" in2="BackgroundImageFix" result="effect1_dropShadow_5_36722"></feBlend>
<feBlend mode="normal" in="SourceGraphic" in2="effect1_dropShadow_5_36722" result="shape"></feBlend>
</filter>
<filter id="filter1_d_5_36722" x="0" y="240.671" width="159.265" height="159.265" filterUnits="userSpaceOnUse" color-interpolation-filters="sRGB">
<feFlood flood-opacity="0" result="BackgroundImageFix"></feFlood>
<feColorMatrix in="SourceAlpha" type="matrix" values="0 0 0 0 0 0 0 0 0 0 0 0 0 0 0 0 0 0 127 0" result="hardAlpha"></feColorMatrix>
<feMorphology radius="11" operator="erode" in="SourceAlpha" result="effect1_dropShadow_5_36722"></feMorphology>
<feOffset dy="4"></feOffset>
<feGaussianBlur stdDeviation="25"></feGaussianBlur>
<feComposite in2="hardAlpha" operator="out"></feComposite>
<feColorMatrix type="matrix" values="0 0 0 0 0 0 0 0 0 0 0 0 0 0 0 0 0 0 0.2 0"></feColorMatrix>
<feBlend mode="normal" in2="BackgroundImageFix" result="effect1_dropShadow_5_36722"></feBlend>
<feBlend mode="normal" in="SourceGraphic" in2="effect1_dropShadow_5_36722" result="shape"></feBlend>
</filter>
<filter id="filter2_d_5_36722" x="599.735" y="240.671" width="159.265" height="159.265" filterUnits="userSpaceOnUse" color-interpolation-filters="sRGB">
<feFlood flood-opacity="0" result="BackgroundImageFix"></feFlood>
<feColorMatrix in="SourceAlpha" type="matrix" values="0 0 0 0 0 0 0 0 0 0 0 0 0 0 0 0 0 0 127 0" result="hardAlpha"></feColorMatrix>
<feMorphology radius="11" operator="erode" in="SourceAlpha" result="effect1_dropShadow_5_36722"></feMorphology>
<feOffset dy="4"></feOffset>
<feGaussianBlur stdDeviation="25"></feGaussianBlur>
<feComposite in2="hardAlpha" operator="out"></feComposite>
<feColorMatrix type="matrix" values="0 0 0 0 0 0 0 0 0 0 0 0 0 0 0 0 0 0 0.2 0"></feColorMatrix>
<feBlend mode="normal" in2="BackgroundImageFix" result="effect1_dropShadow_5_36722"></feBlend>
<feBlend mode="normal" in="SourceGraphic" in2="effect1_dropShadow_5_36722" result="shape"></feBlend>
</filter>
<filter id="filter3_d_5_36722" x="499.779" y="0.12709" width="159.265" height="159.265" filterUnits="userSpaceOnUse" color-interpolation-filters="sRGB">
<feFlood flood-opacity="0" result="BackgroundImageFix"></feFlood>
<feColorMatrix in="SourceAlpha" type="matrix" values="0 0 0 0 0 0 0 0 0 0 0 0 0 0 0 0 0 0 127 0" result="hardAlpha"></feColorMatrix>
<feMorphology radius="11" operator="erode" in="SourceAlpha" result="effect1_dropShadow_5_36722"></feMorphology>
<feOffset dy="4"></feOffset>
<feGaussianBlur stdDeviation="25"></feGaussianBlur>
<feComposite in2="hardAlpha" operator="out"></feComposite>
<feColorMatrix type="matrix" values="0 0 0 0 0 0 0 0 0 0 0 0 0 0 0 0 0 0 0.2 0"></feColorMatrix>
<feBlend mode="normal" in2="BackgroundImageFix" result="effect1_dropShadow_5_36722"></feBlend>
<feBlend mode="normal" in="SourceGraphic" in2="effect1_dropShadow_5_36722" result="shape"></feBlend>
</filter>
<filter id="filter4_d_5_36722" x="119.459" y="0.12709" width="159.265" height="159.265" filterUnits="userSpaceOnUse" color-interpolation-filters="sRGB">
<feFlood flood-opacity="0" result="BackgroundImageFix"></feFlood>
<feColorMatrix in="SourceAlpha" type="matrix" values="0 0 0 0 0 0 0 0 0 0 0 0 0 0 0 0 0 0 127 0" result="hardAlpha"></feColorMatrix>
<feMorphology radius="11" operator="erode" in="SourceAlpha" result="effect1_dropShadow_5_36722"></feMorphology>
<feOffset dy="4"></feOffset>
<feGaussianBlur stdDeviation="25"></feGaussianBlur>
<feComposite in2="hardAlpha" operator="out"></feComposite>
<feColorMatrix type="matrix" values="0 0 0 0 0 0 0 0 0 0 0 0 0 0 0 0 0 0 0.2 0"></feColorMatrix>
<feBlend mode="normal" in2="BackgroundImageFix" result="effect1_dropShadow_5_36722"></feBlend>
<feBlend mode="normal" in="SourceGraphic" in2="effect1_dropShadow_5_36722" result="shape"></feBlend>
</filter>
<clipPath id="clip0_5_36722">
<rect width="48.7589" height="48.7589" fill="white" transform="translate(654.988 291.924)"></rect>
</clipPath>
<clipPath id="clip1_5_36722">
<rect width="48.7589" height="48.7589" fill="white" transform="translate(555.032 51.3801)"></rect>
</clipPath>
<clipPath id="clip2_5_36722">
<rect width="48.7589" height="48.7589" fill="white" transform="translate(173.087 51.3801)"></rect>
</clipPath>
<clipPath id="clip3_5_36722">
<rect width="51" height="39" fill="white" transform="translate(364 296.433)"></rect>
</clipPath>
</defs>
</svg>
